<mxfile host="app.diagrams.net" agent="Mozilla/5.0 (Windows NT 10.0; Win64; x64) AppleWebKit/537.36 (KHTML, like Gecko) Chrome/134.0.0.0 Safari/537.36" version="26.1.0">
  <diagram name="Página-1" id="O37cvqWmkhXalQCfjX-h">
    <mxGraphModel dx="954" dy="600" grid="1" gridSize="10" guides="1" tooltips="1" connect="1" arrows="1" fold="1" page="1" pageScale="1" pageWidth="827" pageHeight="1169" math="0" shadow="0">
      <root>
        <mxCell id="0" />
        <mxCell id="1" parent="0" />
        <mxCell id="-75UwoDDomG-bNRoVkYs-1" value="Usuário&lt;div&gt;&lt;br&gt;&lt;/div&gt;" style="shape=umlActor;verticalLabelPosition=bottom;verticalAlign=top;html=1;outlineConnect=0;" parent="1" vertex="1">
          <mxGeometry x="399" y="30" width="30" height="60" as="geometry" />
        </mxCell>
        <mxCell id="-75UwoDDomG-bNRoVkYs-13" style="edgeStyle=orthogonalEdgeStyle;rounded=0;orthogonalLoop=1;jettySize=auto;html=1;exitX=1;exitY=0.5;exitDx=0;exitDy=0;entryX=1;entryY=0.5;entryDx=0;entryDy=0;" parent="1" source="-75UwoDDomG-bNRoVkYs-3" target="-75UwoDDomG-bNRoVkYs-4" edge="1">
          <mxGeometry relative="1" as="geometry" />
        </mxCell>
        <mxCell id="-75UwoDDomG-bNRoVkYs-35" style="edgeStyle=orthogonalEdgeStyle;rounded=0;orthogonalLoop=1;jettySize=auto;html=1;exitX=0.25;exitY=0;exitDx=0;exitDy=0;" parent="1" source="-75UwoDDomG-bNRoVkYs-3" target="-75UwoDDomG-bNRoVkYs-1" edge="1">
          <mxGeometry relative="1" as="geometry">
            <Array as="points">
              <mxPoint x="384" y="180" />
              <mxPoint x="320" y="180" />
              <mxPoint x="320" y="60" />
            </Array>
          </mxGeometry>
        </mxCell>
        <mxCell id="-75UwoDDomG-bNRoVkYs-3" value="View" style="rounded=0;whiteSpace=wrap;html=1;" parent="1" vertex="1">
          <mxGeometry x="354" y="200" width="120" height="60" as="geometry" />
        </mxCell>
        <mxCell id="-75UwoDDomG-bNRoVkYs-33" style="edgeStyle=orthogonalEdgeStyle;rounded=0;orthogonalLoop=1;jettySize=auto;html=1;exitX=0;exitY=0.25;exitDx=0;exitDy=0;" parent="1" source="-75UwoDDomG-bNRoVkYs-4" edge="1">
          <mxGeometry relative="1" as="geometry">
            <mxPoint x="354" y="250" as="targetPoint" />
            <Array as="points">
              <mxPoint x="290" y="365" />
              <mxPoint x="290" y="250" />
              <mxPoint x="354" y="250" />
            </Array>
          </mxGeometry>
        </mxCell>
        <mxCell id="-75UwoDDomG-bNRoVkYs-4" value="ViewModel" style="rounded=0;whiteSpace=wrap;html=1;" parent="1" vertex="1">
          <mxGeometry x="354" y="350" width="120" height="60" as="geometry" />
        </mxCell>
        <mxCell id="-75UwoDDomG-bNRoVkYs-11" value="O usuário abre o APP e informa os dados de localidade ou geolocalização" style="text;html=1;align=center;verticalAlign=middle;whiteSpace=wrap;rounded=0;" parent="1" vertex="1">
          <mxGeometry x="510" y="70" width="210" height="80" as="geometry" />
        </mxCell>
        <mxCell id="-75UwoDDomG-bNRoVkYs-12" value="" style="endArrow=classic;html=1;rounded=0;entryX=0.808;entryY=-0.002;entryDx=0;entryDy=0;entryPerimeter=0;" parent="1" target="-75UwoDDomG-bNRoVkYs-3" edge="1">
          <mxGeometry width="50" height="50" relative="1" as="geometry">
            <mxPoint x="420" y="80" as="sourcePoint" />
            <mxPoint x="390" y="290" as="targetPoint" />
            <Array as="points">
              <mxPoint x="470" y="80" />
              <mxPoint x="500" y="80" />
              <mxPoint x="500" y="110" />
              <mxPoint x="500" y="140" />
              <mxPoint x="450" y="140" />
              <mxPoint x="450" y="180" />
            </Array>
          </mxGeometry>
        </mxCell>
        <mxCell id="-75UwoDDomG-bNRoVkYs-14" value="A ViewModel recebe os dados da localização, informada pela interface (View)" style="text;html=1;align=center;verticalAlign=middle;whiteSpace=wrap;rounded=0;" parent="1" vertex="1">
          <mxGeometry x="510" y="240" width="210" height="80" as="geometry" />
        </mxCell>
        <mxCell id="-75UwoDDomG-bNRoVkYs-17" value="Faz diretamente a chamada para o &lt;span data-end=&quot;694&quot; data-start=&quot;685&quot;&gt;Model&lt;/span&gt;, que contém a lógica de obtenção de dados." style="text;html=1;align=center;verticalAlign=middle;whiteSpace=wrap;rounded=0;" parent="1" vertex="1">
          <mxGeometry x="510" y="410" width="210" height="80" as="geometry" />
        </mxCell>
        <mxCell id="-75UwoDDomG-bNRoVkYs-26" style="edgeStyle=orthogonalEdgeStyle;rounded=0;orthogonalLoop=1;jettySize=auto;html=1;exitX=0.75;exitY=1;exitDx=0;exitDy=0;" parent="1" source="-75UwoDDomG-bNRoVkYs-22" edge="1">
          <mxGeometry relative="1" as="geometry">
            <mxPoint x="510" y="740" as="targetPoint" />
            <Array as="points">
              <mxPoint x="450" y="620" />
              <mxPoint x="540" y="620" />
              <mxPoint x="540" y="740" />
            </Array>
          </mxGeometry>
        </mxCell>
        <mxCell id="-75UwoDDomG-bNRoVkYs-31" style="edgeStyle=orthogonalEdgeStyle;rounded=0;orthogonalLoop=1;jettySize=auto;html=1;exitX=0;exitY=0.25;exitDx=0;exitDy=0;entryX=0;entryY=0.75;entryDx=0;entryDy=0;" parent="1" edge="1">
          <mxGeometry relative="1" as="geometry">
            <mxPoint x="360" y="540" as="sourcePoint" />
            <mxPoint x="354" y="400" as="targetPoint" />
            <Array as="points">
              <mxPoint x="290" y="540" />
              <mxPoint x="290" y="400" />
            </Array>
          </mxGeometry>
        </mxCell>
        <mxCell id="-75UwoDDomG-bNRoVkYs-22" value="Model" style="rounded=0;whiteSpace=wrap;html=1;" parent="1" vertex="1">
          <mxGeometry x="360" y="520" width="120" height="60" as="geometry" />
        </mxCell>
        <mxCell id="-75UwoDDomG-bNRoVkYs-23" style="edgeStyle=orthogonalEdgeStyle;rounded=0;orthogonalLoop=1;jettySize=auto;html=1;exitX=1;exitY=0.75;exitDx=0;exitDy=0;entryX=1.001;entryY=0.407;entryDx=0;entryDy=0;entryPerimeter=0;" parent="1" source="-75UwoDDomG-bNRoVkYs-4" target="-75UwoDDomG-bNRoVkYs-22" edge="1">
          <mxGeometry relative="1" as="geometry" />
        </mxCell>
        <mxCell id="-75UwoDDomG-bNRoVkYs-29" style="edgeStyle=orthogonalEdgeStyle;rounded=0;orthogonalLoop=1;jettySize=auto;html=1;exitX=0;exitY=0.5;exitDx=0;exitDy=0;entryX=0;entryY=0.75;entryDx=0;entryDy=0;" parent="1" edge="1">
          <mxGeometry relative="1" as="geometry">
            <mxPoint x="354" y="776" as="sourcePoint" />
            <mxPoint x="360" y="564" as="targetPoint" />
            <Array as="points">
              <mxPoint x="290" y="776" />
              <mxPoint x="290" y="564" />
            </Array>
          </mxGeometry>
        </mxCell>
        <mxCell id="-75UwoDDomG-bNRoVkYs-25" value="" style="shape=image;verticalLabelPosition=bottom;labelBackgroundColor=default;verticalAlign=top;aspect=fixed;imageAspect=0;image=data:image/png,iVBORw0KGgoAAAANSUhEUgAAAgAAAAIACAYAAAD0eNT6AAAACXBIWXMAAA7DAAAOwwHHb6hkAAAAGXRFWHRTb2Z0d2FyZQB3d3cuaW5rc2NhcGUub3Jnm+48GgAAIABJREFUeJzs3XV4lMf2wPHvbjYeEiAhgntxd1rc3aFQrC31W6HU7dfeW++teykULQVKcS9W3Io7BPdAiGc3u/v744WWS5HklX13N+fzPPvQQubMINk5O+/MGQtCCF8WCiRcfcUDRa/7Me7qrxcAAoBIwApEARag4NUYyYAbuAK4gBTACaQCmcB54BRwFjh93Y9ngCyDf39CCINYzB6AEOKOrEBpoDJQ5eqPVYEKQCHzhgXAJeAwsBvYe92PR1GSCSGEl5IEQAjvYgNqAU2B+iiTfSUgzMxBqZAB7AP2AH8Ca4EtgMPMQQkh/iYJgBDmiuDvCf/uq6+Ct23huzJQkoEtwGrgd5QVBCGECSQBEMKzbCiTfWegPVANZYk/P3IBu4AVwFxgJWA3c0BCCCGEngoDfYHxKJ943fK66SsdmAM8hLKRUQghhPA5JYDnUD7V5mD+5Oprrxxg1dU/w/J5/LMXQgghPCoE5ZP+HJTNbmZPov702gw8BUTn+m9DCCGEMJAVZePedyjn582eKP39lQlMBbqi7KcQQgghPCoOeAM4hvmTYn59HQf+DZS5w9+VEEIIoVlF4DOUI21mT4DyUl5OlMcuTW7z9yaEEELkmQVogzLJuDB/wpPXrV+bgSEopY+FEEIIVYKBh1FK25o9sckrb6/9V//uQv/xtyqEEELcgg24H3m+7w+v88BIlGROCCGEuCkLyjG+fZg/cclL39cJlAJD8mhAiKukFLAQii7Af4CaZg8kr8LCwiharDhFYmMpWrQosbFxJBQtRmxsLIWjo4mMjMJqtVIgMhKrxUpkZORf/2+xWEi5cgWA5ORkAFJSruB2u0lNTeH8ufNcuHCes2dOc/78Oc6eOcv58+c4d/YMV6628zG7gZeB2WYPRAizSQIg8rvGwH+v/ujVCkdHU7lyVe6qVIlKlatwV6XKVKpUmaiC5twddPnSJfbv28uBA/vZv28vBw8c4MD+fZw9e8aU8eTRGuBFlEuJhMiXJAEQ+VUR4D1gOF74fVCgQAHqN2xEw0aNqVuvPpUqVyEmpojZw8qVK8nJ7Nm9i/Xr17Jp4wY2b9xASkqK2cO6lcnAY4BPLmcIoYXXvfEJYTAryrPgt1Eu6fEKMTFFaNioMY2aNKVR4yZUqVqNgAD/eFztcrnYv28vG9avY9PG9axbu5bTp06aPazr7QKaI1cTi3xGEgCRnzQAvgLqmT0QgOo1atKhU2c6dOxM1WrVzR6OR+3etZPFixaweOECtm/7E5fLZfaQ5qKUFxYi35AEQOQHBYH3gQdRVgBMYbPZaNzkbjp27kL7Dp0oVry4WUPxKufPn2PJooUsXriAVSuXk5mZadZQ2gFLzOpcCE+TBED4u9bAWJTreT3OYrHQsHETBg4aTPsOnUzbsOcrMjIymDt7JlMmT2Ld2tW43W5Pdj8FuNeTHQphJkkAhL8KAf4P5T55j3/qj4uLp2v3Htw3ZBiVKlfxdPd+4czpU/w6bSqTJowjMfGIJ7pMBMp6oiMhvIEkAMIf1QEmAB6deQMDA2nTtj0D7xtCqzZt/WYTn9ncbjfr1q5m8sTxzJr5Gw673aiuMoEwo4IL4W0kARD+JADlbPcbQKCnOi1QoACDhw5nxCOPkZBQ1FPd5ktnzpzmxx++Y8JPY4woRJQExOgdVAhvJQmA8BfFgKl48ErY2Ng4Rjz8KEPvf5DIyEhPdSuAtLQ0fp40ge+//YoTx4/rFfZ3lFsfhcgXJAEQ/qAZyuQf54nOypUrz6NPPEm//vcSFCx3zJgpJyeHeXNm8cVnn7Br5w6t4R4FvtVhWEL4BNOORAmhk6eApXhg8i9ZqhTffD+GP9Zv5r4hw2Ty9wI2m43uPXuzeNkqvv7uR0qVLq0qTnzRoo6pU6cu0nd0Qng3WQEQvioM+B4YZHRHhQoX5umRz3H/AyMIDAoyujuhgcNuZ8L4n/jkow+4cOF8rtqEhIQyfeYc6jVo4CSHD+JjI182eJhCeAVJAIQvKgvMwOCb+4KDQ3jw4Ud48ulniYqKMrIrobP09HS+/foLvvnyc9LS0m75dbGxcXw/ZhyNGv+9dcTtdu/JSo1sWqaMJdkTYxXCLJIACF/TEpiOgXX8LRYLffsN4MVXXqNoManW58suJSUxZvT3TJ82haOJiX/9fKnSpenb714eevTxm2/gtJDtdNG/WEzkLA8OVwiPkgRA+JK+KOf7DXv4Xq58Bf77yec0atLUqC6ESZIuXiQtLY2ChQrlbkXHYnFbcH0XVzjqUeNHJ4TnSQIgfMXjwOcYtHE1MDCQhx97gudeeIng4BAjuhC+ysIR7BmN4+Pjc7epQAgfIQmA8HYWlMI+bxjVQf0GDfnok8+5q1Jlo7oQvs5NNlb6xheOnGP2UITQiyQAwpvZUHb6DzcieIECBXj1jbcYPHQ4VquciBV3YLG43Rb+nVCogGHJqBCeJAmA8FZhKMV9OhsRvFbtOnz7w1hKlyljRHjhxywwPS46sq/Z4xBCK/nYI7xRKDAbAyZ/i8XCgw89wpz5i2XyF6q4oc/ZpJQ9brdbNosInyYrAMLbhAAzgfZ6B46JKcLnX39Hq9ZS7l1o57ZYLga6smvFxMScuskvFwASUN5jjwFZHh2cELkgKwDCmwShnPHXffJv3qIly/5YK5O/0I3F7Y7JIejQuaSka1WELEBPYBVwCdgP7ANSgIXIRUPCy8gKgPAWgcA0oLueQS0WC888+zyjXnhJNvoJg7idh/Ye6HX33fWHoSQAtzMWeASwGz4sIe5AEgDhDWzAFKC3nkGDg0P49Iuv6dm7j55hhfgfDoeDe/v1cq9etTK376dzURKFHAOHJcQdyUciYTYrSnU/XSf/2Ng4fpszXyZ/YbhvvvqcPEz+AF2A75APYMJk8g9QmO1j4Bk9A1arXoPxk6ZIHX9huKysTGpUrkBKSoqa5u8Ar+g8JCFyTVYAhJkeQ+fJv2OnLsyev1gmf+ERK1csVzv5A7yMUuJaCFNIAiDM0gH4TM+A9w0Zxo/jJhIWFqZnWCFuad/ePVpDfI5yyZUQHicJgDBDTZQqfza9Aj70yGN8+PFnstNfeFRmRqbWEFZgPNBI+2iEyBt5txSeVgxlF3QBvQI+PfI53nr7PSwW2dIiPCumSBE9woQAvwJF9QgmRG5JAiA8KQKYA+j2gP7l197gxVde0yucEHnSqHGTO39R7hRFSQKC9QooxJ1IAiA86Vugth6BLBYLb/7nXZ58+lk9wgmhSrXqNahVu45e4Rqh3H4phEcEmD0AkW88BryoV7B33v+IEQ8/qlc4IVQrX74C06f9gsvl0iNcTSAJ2KhHMCFuRxIA4Ql10HHT37PPvcgTTz6tRyghNCteoiRh4eGsWP67XiHbAiuA43oFFOJmJAEQRisALALi9Ag2dPgDvPHW23qEEkI39eo3ICXlCls2b9IjXABKEjAe0HzMQIhbkQRAGG0ycI8egTp26sJnX30rR/2EV2reshUHDuznwP59eoSLBCoAv+gRTIibkQRAGOkpYKQege6+pzk/TZhMYGCgHuGE0J3FYqFjx85s3rSR48eO6hGyMnAO2KxHMCFuJAenhVHqAWuAIK2BataqzYzZ8wkPD9c+KiEMdiU5ma6d2um1EpAJ1Ad26xFMiOtJAiCMEARsAappDRQXF8+iZSuJj0/QPiohPOTUyZN06dCGM2dO6xFuF9AA2Q8gdCYPU4URXkWHyT8wMJDvfvxJJn/hc4oVL86Y8ZMICtalrk814E09AglxPdkDIPRWA2X3suZ/W+99+DGdu3bTPiIhTJCQUJTChaNZuniRHuEaAQsAXZYUhABJAIS+bOhU6rdf/3t58ZXXtY9ICBPVql2HU6dOsmvnDq2hrChJwI+AU/PAhEASAKGvl4D7tAapW68+Y8ZNJMCm22WBQpimZavWLFu6hHPnzmoNFQfkACu1j0oI2QQooBDKDX3hKEV7goGwq69MIBtIB1IBO3AJOHP1v69XBdiKxstMihSJZfHyVSQkyMVown8cP3aMdq2bkXz5stZQ2UBd/nkqIAhIAApf/e8CKN/TwUAokHH1lY3yvZwOnAI0D0j4LkkA8ocCKM/ma6HUGi+FskxfCuVNIq9cKM8ijwKJV19dUEr+qmaxWJgweSpt2rXXEkYIr/T7ksXcd29f3G631lBbUa7ULnP1VRrlNkE1m7rTgWPAyas/bge2ATtQEgXhxyQB8E+lgTZAK5Tz+OXwgRMfQ4bdzwf//dTsYQhhmBefG8lPY0abPYzccAGHUYoQLQOWoCQIwo9IAuAfgoB2QCeUib+CucPJu7Jly7F05RrCwsLMHooQhsnIyKB1syYkJh4xeyhqHERJBOZf/fHGx4DCx0gC4LusQBOgLzAAiDV3OOrZbDZmzVtE3Xr1zR6KEIbbvGkj3Tu3x+n06c38ySgnfqahHE/MMXc4Qg05BeB7igEvAhOAJ4GGqHuO7zWeHvkcffsPMHsYQnhE0WLFyMrKYuP6dWYPRYsQlP1E9wIPomw+3IfsG/ApsgLgO+qiXK4zAPCbG3Gq16jJ/MXL5JIfka847HY6tG3J7l07zR6KnpwoqwGfAUtNHovIBUkAvF87lDKgjcweiN5sNhuLl62iSlXNVYOF8Dm7d+2kfevm5OT45er5OuB1JBHwal6/MzwfawT8DizCDyd/gOEPjJDJX+RbVatVZ/gDI8wehlEao2wUXA00N3ks4hZkBcD7VAI+AjqbPRAjxcbGsXrDFiIjI80eihCmSUlJ4e6GdTl//pzZQzHaXGAUsN/sgYi/ySZA7xGCcoveRKCyyWMx3HsffUKdOnXNHoYQpgoODia6SBEWzJtr9lCMVhF4GGXD8mrk1IBXkBUA79AC+Abl07/fa9CwEbPmLcJikX9+Qrjdbnp178y6NavNHoqnHAYeR3m8KUwk78DmCgc+B+43eyCeYrPZWPT7SqpWq272UITwGrt37aRdq2a+Xhsgr35EOdmUbvZA8it5BGCeOiibZNqYPRBPuv/BhxgwUPOFgUL4ldjYOC4lJfHn1i1mD8WT6gC9gTWA5qsSRd7JCoDnWYCRwDsoJXzzjXLlyrNkxWop9yvETaSnp9OmeVNfLROsRTbKVeKfAppvShK5JwmAZ4WjVPDrafZArlekSCxx8fEULFiIwEAbEQUiCQkOJttux+12k56WSnp6OhcvXODMmdNkZGTkuY/SZcow9dfZlCxVyoDfgRD+4djRo/Tr3Y1jR4/muW1YWBgJCUWJKVKE8PBwwiMKYLFYCA4KIis7m7TUFByOHJKTL3Pu7FkuXDiv/29Am1+BISjXFgsPkATAc4oDs4HaZnRusVgoXboMNWrVpmbNWlSpVp0SJUpQvEQJgoND8hQrLS2Nw4cOcvDAAQ4e2M/2bVvZsnkTqan/rAIaGBTEoMFDefnVN+TInxC5cCU5mXf+8yaTJ03AYf/nfTsFChSgXv0G1KhZm4p3VaJ8hQqUK1+BiIiIPPWTnZ3FyRMnOHHiBHt27WT79m3s2PYnR48m6nFlsVpbgO7AKbMGkJ9IAuAZ9YGZKHd2e0zRYsVp1boNLVu34e57mhMVFWVYXy6Xi/379rJj+zYSjxzBZrNR8a67aN6iFVEFCxrWrxD+KvnyZVauWMbBAwdwOp2ULlOGGjVrcVelylitxtVwu5KczB9/rGT570tZ9vtSzpz2+Fx8CiUJyFcbIswgCYDxOqAsbXnkwXex4sXp03cAPXr1pnKVqp7oUgjhx/bs3sXMGb8yfdoUTp/yWDKQgfKodLGnOsyPJAEwVjdgKhBsZCeBQUH06NGL/gMH0aTpPYZ+OhBC5E8ul4sly5fz6y+TWTB7Fg7HPx9P6CwL6APMM7qj/EoSAOP0ASZj4M19ERERDBh4H4898SRFixU3qhshhAAgPcdBjsvNxQsX+HncWMaP/p6UK8lGdmlHuXJ4hpGd5FeSABhjAMpuf5sRwSMiInjiqWd4YMQjFChQwIguhBDiH7KcTrKvK1aUmpLChB+/54evviAj3bB6Pg5gIDDdqA7yK0kA9NcS5U5s3Zf9rVYrvfv047U3/01sbJze4YUQ4raynU6yblKt8PKlJL7+5L9M+mkMTmOuN3agXJC2xIjg+ZUkAPqqBawEdD/v1qBhIz765HMq3pUvrgsQQnghh8tNRo7jlr9+cP8+XntuJH9u2mhE91eAe4CdRgTPjyQB0E9xYN3VH3UTEhLKqOdf5NEnniQgQCo3CyHM48JNqv3WCQAolxtNnTSBd994lUwVRcPu4DTQBDimd+D8SBIAfUQAG4AqegatW68+X377A2XKlNUzrBBCqOIGUu32XNXrPXbkCM8/+RjbtmzWexi7gEbIJUKayUdKffwItNYz4OChw/lhzDiiY2L0DCuEEKpZALvLmasEoGChQvTqNwC7w87WjRv0HEYsUBalvorQQBIA7Z4EXtArWEhIKB998jkjR70gS/5CCK+T43LjyuWdPVarlSbNmlO6bDn+WLGMHMftHx/kQTXgPKD78kJ+Io8AtGkIrEKnW/1iY+OY9Mt0qteoqUc4IYTQXabTif0mJwHuZPeO7YwY1J+kixf1Gko2cDeSBKgmCYB6kcAOQJfr7cqUKcuU6TMpVbq0HuGEEMIQ2S4nWTl5TwAAjiUm8sC9fThxTLc9fIlADSBNr4D5idSMVe99dJr8q9eowewFi2XyF0J4PauGz42lypRhyuwFVKqq2z0lZYD39AqW38gKgDotgGXo8OdXqXIVfps9n0KFC2selBBCGM3pdpOm8Vn+5UtJDO7VnYP79+kxJBdKAbZVegTLTyQByLswYDtQXmugMmXKMnPeQuLi4rWPSgghPMDthhQdLgI6f/YsA3t01utxQCJQHTkamCfyCCDv3kSHyT+haDGm/TZHJn8hhE+xWNDlo2NsfDw/TZ1BbLwu74FlgNf0CJSfyApA3pQF9qCxzn9wcAiz5i2kVu06+oxKCCE8KMXhwO3O3VHAO9m9cwcDu3UiKytLayg7SjG2w9pHlT/IQfO8+R5lx6kmH3/2BW3attdhOEII4XkOV24rAdxZbFwcRYsXZ8mCeVpDBaAUCZICQbkkCUDuNQY+QuOqySOPPcETTz6jz4iEEMIEDrcbl04rAACVqlQlJeUK27du0RqqKsptrKe0j8r/ySOA3LEAfwBNtQSpVbsOcxcuxWaz6TMqIYQwQWZODnaXS9eYOQ4H/bp0YPeO7VpD/QE002FIfk82AeZOOzRO/sHBIXz25Tcy+QshfJ7FgM+OtsBAPvzyG0JCQrSGugdoo8OQ/J7MRrnznNYAr7/5b+6qVFmPsfisK8nJrFu3hh3btnHo0EGOHD7ElSvJpKSkkJ6WRk5OjurYMTFFKFmqFO07dmLI0Ps9Wlfh4IH9jP9pDKtWruD0qZOkpqZ6rG/he2w2G+EREURGRhIVVZBy5StQrlx5atauTaPGTYmKijJ7iHdkNWjtuFyFijz1wsu8/+brWkM9ByzVYUh+TR4B3FltYKuWAI2aNOW32fOxWPLfH/fZs2eYMX0as377lV07d+BUUUM8r6Kionjvw0/o2buPof04nU7e/vf/8f03X2lKXoS4JiAggOo1atK9Z2969enrtceE7S4XmQb9m3e5XAzs3pk/N2/SEsYN1AG26TMq/5T/ZqS8+xkYoLax1Wpl4dIV1KhZS8cheb8/t27hs48/YsnihR6Z9G9ksVh4/6NPGDLsfkPiu91uHnv4AX77dboh8YUICAigXfuOPDVylNcdGXa4XGQYmPTu3rmDPh3a4NK2z2AScJ9OQ/JLsgfg1koCAwFNHyMH3jckX03++/ftZUCfHnRs25KFC+aZMvmDMkG/8uJz7Nq5w5D4Y3/8QSZ/YSin08mC+XPp0KYFA/v14uCB/WYP6S9GL2ZWrV6Dnv1Uf+66pj/Ke3hJ7SPyT7ICoAhAWepvhXK9ZH1A89pbZGQkazf9SUxMEa2hvF5WViYfvv8u33/zFQ797vzWrHXbdkyaou9EnZmZSd2aVbiUlKRrXCFuJzAoiEcee4JRz79IcLDmjXKaOF0u0gx+7HXx/HnaNW1AepouF/2dBTahnBBYBvyJcodAvpafVwBigQeAGcAFlH8c7wNd0WHyBxjx8GP5YvI/fOggndu34avPP/WqyR9gxbLfdZ+oly9bKpO/8DiH3c4Xn35M25bN2L9vr7mD8cB+ppjYWIY88JBe4eJR3ts/ADajvOf/CtyPMhfkS/ktASiBsjt0DXAGGA30BArp3VF4eDgPPvSI3mG9zoL5c2nXqhm7d+00eyg35XQ62anzY4Ad22RfkTDPgf376Ny+NYsXLjBtDJ5aOh4y4mFCw8KMCF0Y6AX8iDIXrAZGAcWN6Mxb5YdjgFFAX5TNIPfgoaRnyDDPHkUzw+SJ43lu5FOmPefPrfRTywhP1X572TWp5zQXKhFCk7S0NO4fOogPP/6MewcN9nj/RtQBuJnC0dH0GzSEcT98a2Q3VpQ6L01RVoFXAROBaUCKkR2bzZ8TgLrAI8C9QLgnOw4KDubhx57wZJceN27sj7z43EjdLgQxUrGgnURcuahbvLjQ07rFEkKtnJwcRj71BA6Hw7DTLrdi0e0mgDu7/9HHmPzTGBw6XEGcC1agxdXXpyinwL5F41Fwb+VvjwACUHZ+bkR5zvMgHp78Adp36ER8fIKnu/WYBfPn8vILo3xi8g+wWqhdSd+VmLpV/HtlR/gOt9vNi8+NZO7smZ7t2IM1TeITitKybTuP9XedCGAEsAVYj7KS7Ff35/hLAhAGPAEcBKag7OI3jRlLcp6yc8d2Hn5wuNcv+1/TumE8RQppur35H9o3SaBwVJCuMYVQy+Vy8fgjDxl25PVWPHmErPe9gzzY2001BKYC+4HHgFBzh6MPX08AgoCHUCb+L4Ay5g4HEhKK0rxFS7OHYYjU1FQeun8o9uxss4eSK7YAC2//q6buccNDbbw6orrucYVQKzs7i4cfGEaaPkfmcseDGcA9LVuRULSY5zq8tXLAV8Ax4AXA3POYGvlqAhCAMvEfBr4Dipo7nL8NGHgfAQF+tUr0l1dfep7ExCNmDyPX/juqLvWqRhsS+6lBd9GrdQlDYguhxuHDh3j9lRfNHoYhAgIC6NG3v9nDuF4R4D2UFYEH8dFHA75YCKgV8DGg/0c7jcLCwtj4506/PPu/ft1aenbt6BPP/SPCbHzxYn2GdS9raD85TjfPfrSFL6ccwOXy/j8X4f8sFguz5i2iQcNGhveVanfg8uBmwMuXkmjVoA4Z6eke6zMP9gLPAuadzVTBl7KW0sBPwDvoVKhHb08/+xxt2rY3exi6c7lcDBnUnwsXzps9lFsKC7FRrXwUI3pVYOI7Tbm7tvFJmNVqoePdRenRsjhuNySn2knPzMEpyYAw0c4d27lvyDDDLx+zuzw5/UNoaBgOu4ON69Z4sNdcKwIMAmqhbBi8Yu5wcscXVgBswOPAf1B2ZXql3n378cXX32O1+upTlVubO3smDw4folu8oEArLerF0aNVCWrdVYjicWHERYcQFOh/f3bCj2Vchpy8H02zO1ycvWTn1IVs/jyYysw/zrNyWzJ2h36VaX8cN5HOXbrpFu9mUhx2PL0g6Ha7efmZJ5nxy8+e7ThvMoAPUT6seuTsolrengDUAcbghcv914SFhTHq+Zd46NHHsdn8r6yC2+2mXat72LlD+w5jW4CFB3qW541Hq5MQ4xebaEV+5nZB2kX0mAXPJGXzf2OOMGbeaXKc2uNVr1GTJcv/0BzndlIddsxY7HLm5DD2u2/48uMPyczI8PwAcu9PlFLDXls61FsTABvwIvA6EGjyWP6H1WqlRMmSVK1anRatWtO+YyevvbNbDxs3rKdbJ+1ncMuViOC3T5pTvUJBHUYlhJewZ0BWqm7hth9KpdcrOzhyOlNzrLkLl1KvfgMdRnVzqQ4HLhP3BF04d46lixawevky9u3ZzemTJ7ReH2wEO/B/KHcQeN3ZaW9MAMqjlGFsaPZAgoNDqFa9OrVq16Fm7TpUqVKVChUrmn4Tlyc9N/IpJowbqylGs7qxzPi4GdEF9T2PL4RXSEsCl34341284qDXK9v5Y3uypjjD7n+Q9z78WKdR/VOK3YHbo7sAbi8rK4vEw4fYv2c3O7f9yc5tf7J3107sdq9YhV+HUo7eq45ReVsC0AflcoZIMzoPCAigTt163NOsBU3vuYd69Rvkq8n+Rg6Hg2p3leXKFfX7WSqXjWLdhPZERXjVQo4Q+nFkQqa+JeOT03Jo/Mgm9h1Tv+O9UOHC7Np32LBjyWbsAcirrKwstm3exIY1q1n7x0p2/LnVzFWCZJRHAr+ZNYAbeUsCEAx8hFLNz7MdB4fQslVrOnTqTNt2HYiOifH0ELzW5k0b6dKhjer2BcID2TqlI+VLFtBxVEJ4Gbf76l4AfSeWgyczqHP/BtIy1a8cL1iynNp16uo4qr/5QgJwo6SLF1m+eCG/L17I6uXLzFgdcAOfoRQRMn1pwht2rcWh3Mvc1FMdWq1WGje5m959+9G5a3eioqI81bVPWf3HSk3tnx9WRSZ/4f8sFggMBrv25/bXq1A8jGcHlOLNsepXjVevWmlYAuBFq/+5Fh0TQ5+B99Fn4H2kXElm0dw5zP51GpvWr/NUjRML8DTKZXW9gQue6PR2gzFTDWAWyhl/w0VGRtK9Z29GPPwoFe+q5IkufdqQQf1V3zkeFx3C4XndCQ/1hhxTCIM5siBT/6PfaZlOyvVfw/nL6j4sdujYmZ8mGnNkLsVu98Uc4KaOJSYybfIEpk+exOVLSZ7q9iTQA+WyIVOYefC6G7AWD0z+RYsV590PPmLnvkN8+PFnMvnn0qEDB1S37d++lEz+Iv+wGXM5VERoAH1bxqluf+jQQR1Hcx23Ty4A3FKpMmUY9crrrNiynVf/8y7xCR6pLl8cWAl08USDWteoAAAgAElEQVRnN2NWAjAcZdnf0Kt6i5cowb/feZ91m7Yy/IGH8vWGvrxyOBycOHFcdfvuLYvrOBohvJzFqrwM0OMe9VUtjx07Sk6OficUrvGnyf96ISEhDH5gBEs3bOb9z7+iVBnD75cLB2YCDxvd0c2Y8QjgTZTz/YYpXaYMTz0zij79BhAYKLvP1Th//hw1KldQ1dZigcyNAwgO8qVK00JolHEJchy6h82yuwhrs0z1hrtd+w/rfj+JCzepdv1/r97G4bAzc+ovfPfFp5w4dszIrtzAG8C/jezkRp5cAbCgXOJj2OQfGhrKqOdf4o+1m7h30GCZ/DXQcq1oTMFgmfxFPmTM22lIkJXCkerfy9JS9b8i2F9XAG4UGBhE30GDWbR6A6+89TbhEYZVo7cAb6GUEPYYTyUAFuBT4BmjOmjbvgOr129h1AsvERhkzPO4/ETLjVtx0VLmV+RDBj0CAEiIVl9EKy1Nv0qFf/G1838aBdhsDBnxMAv/WE/3Pv2M7GoU8A0eWp33RAJgAb4GnjQieLly5fnl11lMmDyVYsXlubNenE71Z4+Dg+RSHyH0FKzhoiwt38u3kr+m/7/FxsfzwRdfM3ryL0buD3gE+MKo4NfzxDv1Byi/IV0FBATwzLPPs/yPdTRv0VLv8EIIIW4hny0A/MM9LVszZ/lqHn7yaaNugH0ceM+IwNcz+pzWayhLGroqUiSWL775nhYtW+kdWoib2nEgmaUbzrD3SAopaQ5iCgVTvUJBOt9TjBLxYWYPTzdHT6cza/kJ9h5J4VJKtm5xI8MDCQ+1UbRIGBVLF6BK2SgqlorE4CvrdXHoeCqzV55kX2IKGVk5JMSE0qJ+HG0axufbvS75fP4HIDg4mJEvvUrTZi0Y9cQjnD97Vu8uXgCuAO/qHfgaIxOAh1A2NeiqVZu2fPHVd1KyV3jE+h0Xefa/W1m77eYFuwKsFnq3KckHI2tTKsHQU62GSk618+xHWxk3+whOD93xGls4hBb14ujaohg9W5XwuroRFy5n89T7m/ll0TFcN/yZfDRuL6USwvnk+br0bFXCpBGax0NV83xCw6Z3M3PJCp5/4lFWr1yud/h3UKoFjtY7MBj3CKA98JWeAW02G6Oef4mJP0+TyV94xH/H7+XuoYtvOfkDOF1upi4+Rq2+81m09owHR6efMxczaTx4EWNmHvbY5A9w/lIWUxcfY/DLa4lv9Sv3v76evUf0r6anRuKpNBoOWsjPC47+Y/K/5tiZdHqPXMU7o3d5eHTmk/n/f0XHxDD656m88tbbBAbqvgn9a0D7new3YUQCUAOYho6rC4Wjo/ltzgJGvfCSUc9bhPgfn0/ez6j/bs31hJicaqfH0ytZteW8wSPTV47TTY+nVrIvUd/b7PIqLSOHsbMOU633PPo8+weHT+h/dC23srKddHtyJYmn7jwGtxte/XI70xarL5rli9w+8OjG0ywWC0NGPMy46TMoWKiwnqEDUebUGnoGBf0TgGiUqka63QBTslQp5sxfTP0GDfUKKcRtbdt/mec+3prndlnZTga9tIaUdN8pkDLmt8Ns3OWx2ud35HK5+XXpcar1nssbX+/A7vD81a1f/LyfXYeSc/31bjc88+EWMrP1323vrdweXCnyNXUbNGLa/MWUKltWz7CRwBxA14pOeiYAAcBkQLezEbVq12H+4mWUK6+uIp0Qarz6xXbVE8/Jcxl8OnGfziMyzrfT1N/3YKSsbCdvfbeTxoMXcfC4AefYb+OHXw/luc2p8xnMXX3OgNF4J5dsA7ytkqVLM3XuQmrXb6BrWGAKOq6u65kAfIiOzynadejIjNnzdS9hKcTtHD6RxvzVpzTF+GbqQXKc3v8GeTnFzrb9l80exm1t3XuJegMWsHidZ/ZXHDuTrjrh+H3zRZ1H470kAbizgoUKM3bKdJq3bqNn2FYoGwN1oVcC0BMdq/wNvG8IY8dPJizMf45XCd/w0+zDmjc4nb2YycI1p/UZkIFOX8j0ic1cKekOujyxgonzEg3v69S5DNVtT57P0nEk3s1t+k3yviE0LIxvfppIz34D9Aw7CuiqRyA9EoDiwA86xAGgT7/+fPTJ5wQE5M/ztcI8Lpeb8XP0mWTGzjysSxwjZWbpf0ucURw5Loa+uo4pCw29kEXTc/z8sgfA7UaOAeRBgM3GO598TpeevfQKaQHGoTwS0ERrAmADfkbZ/KdZx05d+PSLb2SnvzDFkvVnOX5G/R0I15u76hQXLutXSEcoCdrQV9eyxEOPA8TNudye35jp66xWK+9/9hWt2nfQK2QhYDzK3jvVtM60zwN3a4wBQLPmLfl29BhsNu8qBiLyDz0/tdsdLn5ecFS3eEJhd7jo//zqXB3RE8aQ6V8dW2Agn/8whmatdNsT0BwYqSWAlgSgMkqpX83q1W/A2AmTCQ4O0SOcEHmWnGpn9oqTusYcPSPvu8nFnV1OsTPwxTU+sdHSH7lk+V+1wMAgPh89lvqNGusV8t9AVbWN1SYANpTlB80zdoWKdzF56gzCw323jKrwfZPmHdX9Ge7Og8lev8veV63fcZHPJ/vOcUt/IisA2oSGhvLNuEmUKVdej3DBKGWCVT0KUJsAPAXUU9n2L5GRkfw0YTKRkZFaQwmhydhZxmza+2nWEUPiCnjj6x2c1LBrX6jjckkKoFWByEi+GjueiAK61MxrBDyhpqGaBCABeF1NZ9ezWCx88sXXUuRHmG7XoWS27LlkSOyJ8xLJtueP3eGelpaRky/r8JtNpn99lKtQkQ/12/T+FlA0r43U7Lj7DKUsoSajXniJzl26aQ0jhGY//mbckb2k5Gzmrz7tdzfGlS0ewXtP1c7V1zpyXJxLyiLxVBoL15zWtbLfmJmHefnBahSPk5ohnqCcAJQ9AHpp1b4Djzw1kq8/+UhrqEiUYnyD8tIorwlAS6BvHtv8Q/sOnXjm2ee1hhFCM7vDxSSDC8yMnXnY7xKAQpFB9G2n7hjyjgPJvPntDn5bdkLzcfJsu4tvpx3kP0/U1BZI5Irb7ZYagDr716jn2bNzOyuWLtEaaiDwHbAqtw3ysvZgBTSnKcWKF+eLb76Xs/7CK8xZedLw8/oLVp/m7MVMQ/vwJTUqFuTXj5vx+w9tiC2s/eTPxLmJt7yyV+hLlv/1Z7Va+fCrb4lPyPMK/s18BLkv05iXWfg+oE6eh3Mdi8XCR598IZv+hNcYO9P4TXo5TjeT5h81vB9f07J+HJt/7kilMtreD46dSWfNtgs6jUrcjmwANEZkZBTvfvoFFovmEsv1gf65/eLcJgDBKOcNNRk0eCgtW7XWGkYIXZy9mMmitZ6p2e8LpYHNUCI+jAVftyIuWttKwJJ1Z3Uakbgdmf6N06RZc3r1v1ePUO8AQbn5wtwmAA+ise5wQkJRXvs/zTmEELoZNzvRY8Vkdh++wqbdSR7py9eULhrOD2800hTj942SAHiCUzYAGuqlN/9DQtFiWsOUAYbm5gtzkwAEAs9pGg7w38++JCoqSmsYIXQzbo5nz+hLTYBb69q8GG0axatu/+feS7IPwAPkHgBjFYiM5O2PP9PjUcCr5GIVIDcJwANAKS0jGTDwPlrpeyeyEJqs3XaBvUeueLTPSfMS882NcWo8NaiS6raZ2U6On5WiQEZyA5JjGa9p8xZ079NPa5iSwJA7fdGdEoAAlLuHVQsPD+elVzXXDRJCV2NN+DR+Jc3BnJX63jfgT9o2iicyPFB1+0M61hcQ/yR3AHjOsy+/RmiY5toWz3OHOf5OCUAPoJyWETz6+JPExalf2hNCb+mZOUxdZOy98rfiiVMHvio4KIAaFQuqbn8lza7jaMSNnHICwGNi4+MZNuIRrWEqAF1u9wV3SgCe0dJ7TEwRHnn8X1pCCKG76UuOk5LuMKXvxevOcEKWqm9JS0W/lDRz/k7zC7l80bNGPPEkMUWKaA1z2zn8dglAPaCplp5HPf8iERERWkIIoTutF/9Ur6D+U6rL5WaiwZUHfZktQH2BMHk+bSynbAD0qPCICB55aqTWMC2AWrf6xdt9tz2kpddy5cozaMgwLSGE0F3iqTRWbTmvun1cdAjj/tNE0xh+mnVEcwlcf3XiXLrqtlr2D4jbcyMrAGa4d8gwSpUtqzXMiFv9wq0SgAhggJYeR73wMoGB8g0pvMuYmYc1Tb5Du5WldqVC1K5USHWMA8dSWL/jovpB+Cmny82ew+pPZkRGyPuNUZQKgJIBeJotMJAnRmo+hT8IuOmztVslAP0B1RcVJyQUpUu37mqbC2EIl8vN+Dnalt+HdVOy8WHdNe2N1fwYwh+t3HxO070MZYvL40ajyOFV83Tq1kPrPQFRwE3PFd4qAchVFaFbuf/Bh+TTv/A6Szec5fgZ9UvMjWvGULmsUsxqUKfSBAepf179y8JjZGTlqG7vj76ffkh126BAK2WKSQJgFDkCaB5bYCD9h2iakuEWNQFu9g5WFA2b/0JCQrlPnv0LL6S1Hv/w6z71RxcMpkuz4qpjpaQ7+O13qQlwzdptF5i6WP3RzKrlorAFaK6eJm4hR44AmmrA4GEEBwdrCdEc+EeN4ZslAPfe4udzpU+//hQqXFhtcyEMcSXNwazl6ifc0OAA+rb73+swhnXXtjlHHgMoLl2xM/z19Zr2ZrRuKLVGjOJ2yx0AZiscHU2XXn20hLAC/whws4k+11cJ3shisfDAiIfVNhfCMBPnaivD26dtSQoW+N/S2h2aFiUhJlR1zGUbz5J4Kk11e3+Qmu6g5zMrOXAsRVOcNo0SdBqRuFGOHP/zCkMeuOVm/tz6xz6AGxOAoijn/1Vp0KgxlatUVdtcCMNo/bQ9vMc/N/3ZAiwM6lxadUy3m3xdE+Dg8VQa3bdI07FMgCKFgmnVIE6nUYkbyfl/71CpajXq1G+oJUQjIPb6n7gxAegMqH6Q1qNnL7VNhTDMrkPJbNlzSXX70kXDaV439qa/drPEIC/Gzsx/NQEuXbHzwqd/UrPPPPbocCHTvR1LE2hTvyFT3J5DKix5jY7aTtdZgU7X/4Tthi/orDqy1UrHzl3VNhfCMD/+pv3Tv9V687y4StkoGlSLZuOuJFWxE0+l8cfW8zS7RYLhrbLtLo6cvPnjC6fL/T9leZ0uN+eSskg8lcbCNadZtvEs2XZ9PlUGWC082q+iLrHEPyk3AEoC4C06du3Ou2+8erUugyqdgZ+u/c/1CUAg0Fpt1AaNGhMfL8/hhHexO1xM0rDMbrVaGNrt9pv9hnUvpzoBAOXxhK8lALsOJVOu8yyzh0HfdiWpVCbS7GH4LbkAyLsUiYujVt36bN20QW2Itijzfg787yOA+igVAFXp3qOn2qZCGGbuqlOaisu0bhhPqYTw237NwE6lCQ0OUN3HtMXHSTXpciJfFhRo5fWHq5s9DL+WI5/+vU7Hrt20NI8Cal/7n+sTgBZqI8ryv/BW2s/+3/moX1REIN1aqK8JkJ6Zw69LT6hun189O6TyX4WZhDHk/L/3ad+1G1arpj0vLa79x/VRmquNVr9BQ1n+F17nXFIWC9ecVt0+KiKQ7i1zN7Fr3gwoNQHypGKpSF59qJrZw/Br8vzfO8XFJ1Cjdh0tIf6a663X/dhIbbRmLVpqGYwQhvhp1hFyNFxhNrBTacJCbtwne3NtG8VTIl79XfZ/bD3P4RP5uyZAboUEBzDlg7tz/Xcj1MlxueX6Hy/VpFkLTc25etrvWgJQEVC9k+YebYMRwhDj5hzR1D4vn+qtVgv3dS6jui+3G8bN1jbe/MBige9fb6jpNkaROzkuuQLIWzVqereW5oWAsvB3AqB6PSEsLIzadepqGYwQulu77QJ7NZwxr1ouivpVo/PUZniPclg0lKMfO+swTjlzfVvvP12bwV3UJ1oi96QCoPeqVa8+ISEhWkLUg78TANUzeM3adeTmP+F1xs7S9mn6/p55f6ZfoWQBmtQsorrPk+cyWLHpnOr2/u6tx2vw3LAqZg8jX3C63Ugu6r2Cg4OpXL2GlhD/kwCo3k0jn/6Ft8nMdjJ9yXHV7W0BFgZ2LK2qrVwQpD9bgIUf3mjIaw/JkT9PkU//3q9mbU1zb1X4OwGopDZKrVq17/xFQnjQtMXHSE61q27fpXlx4lVe8tOvfSlNm9NmLD2haez+pnhcGMtGt+HBXuXNHkq+4nBKAuDtNJ4EqARKAhAOlFAbpaq2ZQghdDd2psbNfxo+xUeGB9KrtepvJzKznUxbrH71wl9YLDCoc2m2Te3EPXV8q0qir3Pjlut/fUClqpou3isFhFqBu1B5AVBQcDClSpXWMgghdJV4Ko2VW9Q/R4+LDqHj3UU1jWF4D3kMoEXtSoVY8WNbJr7TlOiCwWYPJ9/JkYf/PqFU6TLY1O+/swIVbCiZgCrly1fAZpOzuMJ7aL1dLzU9h0rd52gag0vjG+i67RfZl5iSr2rcWyxwT51Ynh9ehU53F9N0mkJo45Dqfz7BFhhIqdJlOHzwgNoQpWyA6hqmZctqq34mhJ5cLrfms/8ZWTm3vOXOk8bNPsK7T9UyexiGCrBaqF25MF2bF2NQpzKUK6H6KhKhF7dbyv/6kNLlymlJAErY0PD8v3gJ9c86hdDb0g1nOX4m3exh6GL8nCP85181CbjFNcRmCw6yUiz21pUPrVYLURF/L0+GhdiICLNRLDaMiqUKUKVcFE1rFaFggSBPDFfkksONVP/zIcWKa5qDS9gA1Q88E4oW09K5ELrSevGPNzl9IZMl687Qoam2/QhGqVa+IJt/7mj2MITOpPqfb4nXNgcXswJ5K3d2fetikgAI73AlzcGs5SfNHoautJ5mECJv3Djk/L9PSSiq6QNCtBUorLp1dIyWzoXQzaR5iWRm+9enl5nLT5CUnG32MEQ+4XC5NW2gFZ5XWNscXEhTAlCwkFzIIbyD1tK/3sjucPHLomNmD0PkE1L8x/dEaZuDC1vRcAtgwYIFtXQuhC52HUpm8+4ks4dhCH9MbIT3cbvBgSQAviZK2xwcZQVUV9oIC5djO8J8Y/xo89+NNu9OYseBZLOHIfyc3eWU7f8+KCzs1idxciHICqguJSS3AAqzOXJcTJybaPYwDDVeY20DIe5ELv/xTYGBmo7RBlkB1REkARBmm7PyFBcu+/dGuQlzE3HkyBu0MIbLLeV/fVVgkPYEwHrHL7sFq1V1UyF04U9n/2/l/KUsFq45Y/YwhJ9yyNl/nxUQEKCluc0K5KhtnZPj0NK5EJqcS8pi0dr8MTHmh0RHmMMupX99lsOhaQ62WwHVl4/b7ZIACPOMm30k3yyNz13l/486hOc53W5ccvjfZ9ntmt4T7FZAdQSHXXXuIIRmP83OP5vjHDkuJs/3782OwvPssvzv0+zZmubgbBsaVgDS09MpHK26krAQqq3bfpG9R66obl+1XBSzP2+h34ByYffhK3R7coXq9mNnHeGpQZX0G5DI19xuN3anfPr3ZZkZGVqa223AFSBBTevLly9RomRJLQMQQpWxs7Q9E7+/ZznKFvdsHYuyxSOoXDZKdeKyff9ltu2/TK27pAKn0M7udiGH/33b5UuaCqAlWwHVEZKS/LP6mvBumdlOpi0+rrq9LcDCwI6l9RtQHgzpWkZTe9kMKPRid8ryv6+7fOmSluZJmhIAjZ0Locq0xcdITlX/7KtL8+LEx4TqOKLcG9K1LAFWi+r2k+YfJdsub9xCG4fbhRz9931Xki9raX5JUwJw9sxpLZ0LoYrWa3KHdy+r00jyrmiRUNo1UfXEDYCk5Gzm/SHfd0Ibh3z69wtnT2t6L7hoBc6pbX38uNxUJjwr8VQaK7eo/idLfEwone4ppuOI8m5493Ka2stjAKGFCzcO+fjvF05qm4PPWwHVESQBEJ42a/lJTXeWD+5SBluA+iV4PXRvWZyYgqrv4GLphrNkZssnOKGOPUf+7fiLkyfU74UCjlqBo2pbH0uUc8nCs9bvuKip/TATl/+vCQq00r9DKdXts7KdbN+v6dmfyMfscvGP3zhx7KiW5kc1rQAcPZpIZmamlgEIkSdaNv81qhFDlbJROo5GvWHdtCUil1O0F+EKCFB/l4eWjYzezObnfyZ2p1PTCprwHpkZGZw8rs8KgKqU0Ol0cvDAfi0DECJPYgqpXzrX+uxdT/WqRlOjYkHV7Yto+HO4Ji46RHXbhCLmnKIwWmxh9X+uCTHa/06M5AaypfKf3zi4fx8u9fc4OIHjViATUL2Wv2f3LrVNhcizelXUVZ4MC7FpWnY3wlCVqwBhITYq67CSkRATSvG4MFVt1f49eLvyJQtQKFLdFav1KqtP6DwhxyVH//zJ/j27tTQ/CGRfW+/aoTbK9m3btAxCiDzp264kQYF5X6Yd3KUMURGBBoxIvSFdyxIWYstzu+4tixMemvd2N7JYYICKpCjAaqFfe/+sABpos9K7Td5/b8FBVnq1UH+80xOy5OifX9m9U/W0DbALwHr9/6ixaeN6LYMQIk+KxYbx5MC78tQmKiKQV0ZUM2hE6sUUDGbU0Mp5ahMSHMBbj9XQbQzPD69K4ai8feJ9sFd5KpaK1G0M3ua1h6oREZa3BOvJgZUoVkT9IxWjOVwuufXPz2zeoGnu/Z8EQHUqsXfPbtLS0rQMRIg8eftftWheLzZXX2sLsDDuP00oEa9uqdtorz5Ujfa5LAxkscCYNxtRvmQB3fovUiiYqR/ek+tVlfpVo/n4uTq69e+NSiaEM+HtJrk+Ltq8Xiz/eaKmwaPSRj79+5eUlCsc1rb/bif8nQBsVBvF6XSyeZPq5kLkWVCglflftWRY97JYbvMeXbRIKPO/akn3lsU9N7g8CrRZmflpcx7qU/62v5fogsHM+qwF9xpwh0HrhvEsG93mjklS//alWDa6jarHFr6mR6sSzPuq5W1LRlssyrHSBV+3UvVYylOc8unf72zduFHLBkC4Oudf+04+DpwEVL1TrlqxjBYtW2kZjBB5EhZiY+xbjXm8f0W+m36IFZvPcfZiJsFBAVQtF0XPViV4sFf5PC/lmiEkOIDvXmvIQ70r8N30gyzfdI6T5zIIDQ6gctkoujUvzqP9KxAZbtwehqa1irB/djfGzjzMr0tPsPfIFa6kOUgoEkLzunEM71GOu2sXMax/b9SucQIH53Tjh18P8duyExw4lkJKmoNicWG0rB/Hg73K06Ca92+GtGubKIQXWrNyuZbmx1Dme67/zPEL0E9NtLsqVWblmg1aBiS8zPZtf9K+dXNVbetWKczmnzvqPCIhvFxmCjiMqYtS78GNbNmfoqrtrwuXUq1mLZ1HJMzUvmlDjh5RXRL8Z2Ag/P0IAGCd2mj79+3l1MmTapsLIYQQIhdOHj+mZfKH6+b66xMATWsKixbO19JceBnL7R5I34FLDhsLoSst31NavpeF91m2aKHWEH/N9dcnADuAM2ojzpo5Q8uAhJcJDVVf6e3C5WwdRyKEjzBwo925y+pLP4eFh+s4EmG2ebN+09L8FPBXBaHrEwA3sERt1I3r18ljAD8SERGhuu3Zi5myCiDyIWM22zldbs5dUp8AhIer/14W3uXM6VNs37pFS4hFKHM98L8JwLVfVMXtdjN3ziy1zYWXiSpYSPXSYY7Tzd5EdRuWhPBZBtXZ33M0HafKhNpisRBZ0LtLFIvcmzfzN9zaVpoWX/8/NyYA8wHVqebE8T+pbSq8TFhYGLGxcarbz1p+QsfRCOHl3G7DEoCZqy6obhsXn0BIiPdWKBR5M2PKZC3N7dwhAUgGlqmNfvDAfjZtlOOA/qJ8hYqq205bfFyuHRX5hzPHkLBuN0xfcU51+zLly+s4GmGmzRvWc/jgAS0hFgOXr/+Jm5Wvmq6lB1kF8B/VqldX3Xbb/svM+F3TXdVC+I4c9c/ob2f6inPsOKy+1Hrlqt53B4ZQZ+rE8VpD/GNuv1kCMBNQnc7+NmM658+rz1iF92h6dzNN7V/+fDtZ2VKDXOQDOVm6h8zMdvHy95rOe9NI4/ew8A4XL1xgobY9dg5g9o0/ebMEIAlQfdDQnp3NuDE/qm0uvEijJk2x2dSX0j1wLIURb8ojIeHnnHZw6fsIwO2GB97bw6GTGapj2AIDqdewkY6jEmYZP/o7srM1Ha+eyw3L/3DzBABA0wz+4+jvyMhQ/w9XeIfIyEiatWipKcbEeYm88bWme6uF8G7Z+r/XvTHmMD8vPaspRrOWrQjXcJxXeIfMjAx+maB5+X/szX7yVgnAPED1On7y5ctMmjBObXPhRfr2u1dzjLe+28nAF9eQKY8DhL9xOiBHv8JX2Q4Xw9/Zw79/StQcq3sfVVe7CC8zedxYki9f0hLiDLDgZr9wu4PeHwDPqe0xNjaODVt3aKooJ8yXlZVJ3ZpVSbp4UXOs6hUK8sEztenQtKgOIxPCC6Qn6XYCYP66i7zw7SF2HVG/6e+a6JgYlm/eTnBwsA4jE2bJSE+ndcM6XEpK0hLmA+CFm/1CwG0aHQT+xa1XCW4rPT2dqMgo6sszKJ9mswWSk+Ng9aqVmmOdv5TFpHlHWbbxHFl2F0WLhBp6xa0QhspOBYe2T/8nL2QzcfFZRn55gPcmHuW8hpK/13vs6Wdp2KSpLrGEeUZ/8yXLlyy+8xfemhMYxk2e/8PtVwAAfgN6qO25UOHCrN+0jSipROXTUlJSqF+7GleSk3WNa7FAfHQoCUVCKVoklNCQ2+WjQngRl0tZ/lchM9vJ6YvZnEmyc/ZStu71MqIKFmL5pj/l+b+PS758ibaNG5ByRdP77gyg961+8U5bvD9BQwJw+dIlPvrgXf79zvtqQwgvEBkZyQsvvcrLL4zSNa7bDWcuZnLmYiZb9+oaWoh865mXXpHJ3w98+v67Wid/gI9v94u5Kfa+GairtvfAwECWrVpLhYp3qQ0hvIDL5aJz+9b8qe0iCiGEgarWqMm0+YsJCJDVNF92cN9eurdtiTNH0/6STUCD231Bbrqk7L4AACAASURBVJ7vv6NlBA6Hg1dfel5LCOEFrFYr//30C0JCZFOnEN4oNDSU9z/7UiZ/H+d2u/n3qy9pnfwB3r7TF+TmX8o+lMcA8WpHcezoUUqWLk3VaupLywrzFYmNJTomhiWLVNeJEkIY5K0PP+buFq3MHobQaMaUyYwf/b3WMH8Cz97pi3KbKl4ANB0qXb9uLQMGDiIsLFxLGGGymrVqc+7cWXZs32b2UIQQVw0cdj+PPj3S7GEIjS5euMBjwwaTnaW5tPSjKB/ebyu3CcA+oDsaVgGyMjM5ceIE3br3VBtCeInWbdpxYP9+Duy/478vIYTBWrXvwHuffYnVqurEtvAiLzz5OHt2aq6cupVcfPqH3CcAAAeAoaqGcy3A/n2ULFVKHgX4OKvVSvuOHdm/dy+HtF1PKYTQoG3Hznzy7WgCA6Wehq+bPnkiP3z1uR6hhgBHcvOFuTkFcL25QOc8D+c64eHhLFmxmrJly2kJI7yA0+nk+WeflrLPQphgwOChvP7uB7Lpzw8cP3qUHm1bkJ6muQrkLPJwdD+vCUBlYAd3rh9wW7Vq12H2vEUESZlKvzD1l595fuTTZGVlmj0UIfxeUFAQz736BkNGPGz2UIQOsrKyGNitE7u1L/07gOrA/tw2yGvqeBGIBjTV9z179gznz5+nfYdOWsIIL1G1WnVat23Hxg3rdbkzQAhxcxUrV+H7SVNoI++dfuO1Uc+watnveoT6FPg5Lw3UrB2tAQYDkSra/mXnju3EJyRQo2YtLWGEl4iLi+e+IcMoEFGAzZs24nCoK5MqhPin8IgIRr70Ku998jmx8ar3Ygsv8/O4sXzz2W2L9eXWCaAvkKfLJPL6COCaXsCvKtv+JTAwkMlTf+WeZi20hhJe5FJSEmNGf88P333NlStXzB6OED4rPCKC3gMG8vC/niYmNtbs4QgdbVy3lgcG9MFu1+UCqB4oz//zRG0CADAT5WigJlEFCzJv4VLKV6ioNZTwMikpKcycMZ3pU6ewaeMG3HrfeiKEH7JYLDRo2Ihe/QbQpnNXIiI1LbYKL3TowH7u7dqJlBRdPiD9hvKhPM+0JADxwE4gRkMMAEqVLs2cBUuIjY3TGkp4qTNnTvPHqpWsXrWSnTu2c/jwIezZ2q5SFcIfBAeHUK58eapVr8E9zVtw9z3NiE8oSprDgUuSZr9z4dw5+nftyKkTx3UJh7Lx75yaxloSAFCWHX7TGAOAylWqMmPWPAoVLqxHOOHlXC4Xp0+d4tKlJFJTU0hLS5OEQOQLQcHBREREUKBAJIULR1O0WLF/FPHJzMnB7nKZNEJhlMuXkhjcqzsH9Sui1heYrrax1gQAYDzKpkDNqlWvwa8z5xJVsKAe4YQQwudkO51kOZ1mD0PoLC01laF9e7JLvzLqY4H7tQTQIwGIBLYA5XWIRf0GDZk4ZTpRUVF6hBNCCJ/hdLtIczgBWfr3JykpV3ho0AD+3LxJr5AHgHpAqpYgeiQAoDyDWA+E6RKsRg2mTJtJdIzm7QVCCOET3G5Iy5Hn/v4m6eJFHhjQh727d+kVMgtognLjnyZ63R6xE3hKp1js3LGDnt06cebMab1CCiGEV8tw5sjk72fOnD7FfT276jn5AzyGDpM/6JcAAIxGeSahiwP799GpXWt279qpV0ghhPBK2U4nObLpz6/s2bWTfp3bc+TQQT3D6jrP6n1/5CPAH3oFO3P6FN07t2fZ70v1CimEEF7F6XKRLZv+/MqKpUsY1KML58+e1TPsSuBxPQPqfY2UE5iNUpRAl/N8drudmTOm43a5adSkKRaLXtsWhBDCXC7cZDicsuXPT7jdbkZ/9QWvjXpG72PNiUA7NG76u5FRs2lVYDWg63m+Ll278+mX3xAREaFnWCGEMIGbNEcOTnnu7xfSUlN54cnHWbpwvt6hLwNNgb16Bzby4/TdwGIgVM+g5cqV5+vvf6Rmrdp6hhVCCI/KdOZgd8pzf3+w48+tjHr8YY4lJuodOgNoC6zVOzDo/wjgeseBbSiVinTr5/LlS0yZPBGXy0XDxk3+UUFLCCG8XbbTSbZM/j7P7XYzYfT3jHz0YS4lJekd3gH0BpbpHfgaIxMAgIMozy56oONqg8vlYu2a1axZ/Qf16zegcHS0XqGFEMJQDpeLTNn05/MOHzzA48OHMnXSeFwu3f8+ncAwYIbega9ndAIAsAOlalEPdD51cOrkCSaMG0tGRgaNGjUhwGbTM7wQQujK6XaTniOTvy/LcTj48ZuveOaRBzmpz4U+N3ICDwATjAh+PU8kAAC7UFYCuqNzEuByudi4YT1z58ymTNlylClTVs/wQgihC5cb0h05SJlf37Xy96U8Nmww82f9htOYVRwnMASYaETwG3n6TN29wDgg0KgO2rbvwP+99TblylcwqgshhMgTN5DucMiOfx91+OAB3vu/11m1zNCaNHaUi/WmGtnJ9cw4VN8a5QrhAkZ1YLVa6dy1Oy+/9oasCAghTJee4yDHJZO/rzl98gTffvYJ06dMxpmTY2RX6UAfYKGRndzIrKo69YF5QBEjOwkMDGTAwPt49IknKVu2nJFdCSHETWXm5GCXMr8+JfHwIUZ//SUzp/1CjsNhdHfngM4ot+p6lJll9SoAc4C7jO7IarXSoWNnHnn8XzRo2Mjo7oQQAoAsZ44c9/MhWzau58dvvmL54kW4PJO07QG6AYc90dmNzK6rWwBls0M3T3VYoeJd9B8wkEGDh1KosC7VioUQ4h+ynE6p8e8DUlNSmD97JlPGjWWPZy+fWwAMBJI92en1zE4AQDmJ8B4wypOdhoSE0rFzZ7r37E3LVq0JDv7/9u47vo7yTPT476j3ZqtZcpF7wwW5GwPGxhUbjCEJEFrI7mbJllyyuZubbO7dbHKTvXc3yU3bZMnSAsQQMNWADS5gG9xwr3KRJVu2LFuWrF5Ou3+8OkE4LtLMO2fmzHm+n898TPG8844057zPvOV5k8J5eSGEi3UGArRZO2YsTOjo6GDj+rW8++YbrFv9Lh168/ZfTxD4P8B3AVu7h5wQAITcg9rqMDPcF87IyGDegoXMvX0+t9x6m/QMCCEMk8bfmerrLvLxRx/x4dr32fDBGpqbtO6r0+NqAF8B3rDj4pdzUgAAMBh4GZhkVwViY2OZMPFGbpp1C1OmTmPSlKlkZoY9JhFCRCBvV+Mv8/3t19jYwK7t29m1YxtbNm3kwN494RrXv5rtwBeBCjsr0Z3TAgCAROB/A/8NzUmDjIiJiWH4iJGMveEGRo0aw+ixNzBs2HAK+/UjNjZceZSEEE7nCwZo8fqRRD/h5ff7qak+y4ljRyk7dIgjhw5y5NBBThwts7vBD/EDPwX+CbXW3zGcGACEzAKeARy5fi8+Pp6i4mL69x9IfkE+2dk5ZOfkkJOdQ2xcHOnp6RIgCBEl/EHo8Pe+2z81LY2CfkUMGTbcto3NLtTUUFlxkou1Fwg6o8H8HL8/QHNzEz6vl0v1dVyqr6e+ro7aC+epOlVJ9dmz4ViqZ9RR4FEs2s3PLCcHAACpqAmCj+OA3gAhhLBC37w8vvDAQ3z18b8hNS0tLNdc//4afvvzn7Jv9y6CkqFQNz/wS9REv1ab63JVTg8AQqYA/wGU2l0RIYSwyoBBg/jNcy8ydLh16VG83k7+1z9+i5UrXrTsGlFuO+qlNeyJfXorUgIAUMsFvwb8EMiyuS5CCGGJvIICVr63lryCAkvK/+43v8GrfwjLXjPRpg71xv8kNi/v66lIGqQOAjuA33X9+yRA9v8VQrhKS3MzVacqWXTnMu1lr39/Df/2g3/WXm6U6wSeAu4GNhJBs0AjcVy9Dvg2MAZ4iQiJtIQQoqc+eO8djh8t017uk7/6ufYyo1gAeBGVzv6vgAv2Vqf3IjEACClHbS88HgkEhBAus36N3o3hai9cYO/OT7WWGaX8wB+AG4Av46B1/b0VyQFAyAFUIDAaeA6HrbMUQggjKsr17g9zuuKkU9bFR6oO4FlUW/MAaiOfiOamMfQy4BHU8MBfdR2FdlZICCGMOlNRwbYP1mkr7+DBA9rKijLVwG9Qk/tqbK6LVm4KAELOAd8HfgwsRyVhmIM7ejuEEFGiramFT9Zu0FbepQbbNp2LRH5gHfA08Brg2ExDZri5UewEVgDzgEGo5RlH7KyQEEL0VFFBkdbysjKzSE1J1VqmCx0GvoNqM+aj9qZxZeMP7g4AujsN/AgYBYwFvgfssrVGQghxFRnpGRQXFmsvd9SwUdrLdIFdqDz9Y1Dj+z8GqmytUZhEUiIgKwxE9RDMBW4D+tpbHSFEtPN4PCyYvYCBxQO1l+31eXl11as0NDZoLzuC1KK699cC7wOn7K2OfaI9AOguBrWkcAYq9fBUYDjyMxJChInH42H6pOmMGzXOsmtcarjE2x+8TUtri2XXcJAgaoL49q7jE2AvsmwckMbterKAcaihg1D30DCgH+6cQCmEsElGegYzJ8+05M3/cq1trWzevpnyynLLrxUmPuAsave9Q92OfUBUd3dciwQAxsQCBaghhALU0EE2KmAYAtxrpNDEhERLxv3EZ85dOGfmzWcv6gtGONdwVE9er6WmpFKQa03+/avxxHhITU6lqLCI4sLisG8JXN9QT+XpSuob6vH5er+dcW+drj5NZ6fhVC2vACeAeuASqiu/GtWFfw41c1/0ggQA+o1DNRS91ie7D/cuMRQ7iB7auHUjh44azt/xC+DvNVZH6PdL4G+MnDhmxBhmTZ2luTqiuz++/Ufq6uuMnj4e9UYvNImWVQBCAJCelm7m9Am66iEsM9HoiZnpmTrrIYTjSQAgokpGWoaZ08cjvWZOFoPqgTMkPd1UcChExJEAQESV7KxsM6dnAiWaqiL0GwoYbsVzMnM0VkUI55MAQESVrIwsYmNjzRQxSVddhHalRk+Mi4sjI91U75AQEUcCABFVYmJiyM401QswT1ddhHbzjZ7YJ7sPHo+M7ojoIgGAiDp5ffPMnL4ImQfgRB5MBGcmnwkhIpIEACLqmNxkpRATE82EZW7ExPbfujfeESISSAAgok6/gn5mi1ioox5CK8O/E4/HQ2G+4dhBiIglAYCIOslJyeRkm5rxLdmanOceoyf2zelLYkKizroIEREkABBRyWSX741IUiAnmYTB9L8g3f8iekkAIKKShmGAr+ioh9DiMTMna3gWhIhIEgCIqFRcUExcnKkNHR8AkjRVRxiXDNxn9OT4+Hj65UsAIKKTBAD6BY2eGAjIFtXhEh8fb3bb1RxMjDsLbb6IytBoSMmAErOBoOgFk99xhr9bxZVJAKBfq9ETG5sbae9o11kXcQ3DBw83W8S3kc+QnWJRvwPDhpUM01QVcT3tHe00NjWaKcLwPt7iyuTLS7+LRk/0+/2s27xOgoAw6d+vP0mJpnrxxwDLNVVH9N4XgBFGT05JTqG4sFhjdcTVtLW3sW7TOrM9ALW66iMUyWhmjQtAX6Mnx3hiyMnOIS01jfS0dNJT00lPSyctNY201DSSk5I1VjW6bdq2iYNlB80UsQ+1IkC6J8MrBvWzH2O0gHGjxjFj8gx9NYpybe1tNLc009TcpP5safrTP9fV1xEImmr8zwP5mqoqusjglzU2AcuMnhwIBqitq6W27soBb1xc3OeCgj/92fXfUpJTJK95Dw0rGWY2ABgH3A2s1FMj0UP3YKLxBxg2WLr/eyoYDNLa1kpTcxNNLU00N6sGPtTgN7U04fP5rKzCJisLj1YSAFhjDSYCgOvx+XzUN9RT31B/xf8fExNDUmISqSmpZKRlkJGeQXpaOhnpGaQkp5CRliETn7oU5BXQN6fvVYOtHvopsBoZowyXFOBfzRSQ1zeP3D65mqoT+QKBAG3tbbS2tdLY3EhjUyNNzU00NjXS0toSjgb+elbbeXG3klbAGu+huoRteQ0PBAK0trXS2tbKhYsX/uz/ezweUpJT1PBC1xDD53oS0tKJi42eR2PCmAms3bTWTBEDUJPRvqenRuI6vgeUmClg4tiJmqoSGXx+n+qO7/7m3tVF39TcRGtbK8GgY0exgkgAYAnpJ7bO28AddlfCqFBPwZ96D9IyyEzPJD09naz0LOLj4+2uojaBQIBnXn6GhqYGM8V0oIYDjuqplbiKUcAeIMFoAdlZ2Txy7yOuGibzer1carpEU1MTDU0NNDZ/9gbf2NxIa5vhxUlO8BZwp92VcCP3fAKcZwqwze5KWMHj8ZDfN5+JYycwfvR4YmIifzHJzn07WfPR+2aLWYvaktaxr1IRLgZYB9xqppBFty1iwhjDmYMdw+/3s/fQXnYf3MP52vNOfoM3IwhMBnbaXRE3irW7Ai52BvXgml5s7kTNrc0crzjO8coTDBk4hMTEyN5MJbdPLnsO7sHr85opZjDQAGzVUytxmW8Bf2GmgLTUNO6Yuzjig9aGxgb+8OYK9h7aS0urq6eevAX8zO5KuJUEANb6CHgINWnJlZpbmikrP8rYEWMielggNiaWQCBARVWl2aJmo8Yrz5qvlehmKvACJr+zbppyEwOK+uupkU1aWlt47pXfU3epzu6qWO08sARotrsibhXZYbDznQEeweVdwg2NDazeEPlzdKZMmEJmuuGssiEJwAogw3yNRJdM1M/UVISZnZnN5PGT9NTIRu9teI/GZlMZ9SJBEHgYqLa7Im4mAYD13gH+Oy4PAo6cKOP8FVYcRJK4uDhumzlbR1FDgf9C5tjoEAM8jclZ/wBzbppDbGxkd3rWXKjhaPkxu6thtSDwD8jMf8tJABAe/w58HXD1bj/7D++3uwqmjRo2igFFA3QUdS/wYx0FRbn/i0q0ZEpJ/xKGuyDxz/4jB+yugtUCwNdQuTWExSQACJ/foHYuM7xXgNMdPn7Y7ipocfusubqWiP0j8LiOgqLU3wHfNFtITEwMc2+eq6E69goGg675jF1FLSrD45N2VyRaSAAQXq+i0pe+andFrNDY1MiZc2fsroZp+bn5TBgzQVdxvwCW6iosiixD0+zv0htuJDfH8NYcjlFVfYam5ia7q2GVP6K+G1+3uyLRRAKA8KtBdQ/fArwCmFp35jSHjrrjDeW2mbPJzDA9IRDUrPWXieCkUDZYipr0Z/r7KTszm1um32K+Rg5w+Nghu6ugmxfV8N+M6h09b291oo8EAPbZiNrOdBDwBGqyYMQvHTty4ogrEpIkJiSy9PYluoYCklCbBd2rozCX+yKqh8x0YomYmBiWzltCQrzhpIGOobr/j9hdDR3OAquA/4b67vsistGPbaIn4btznUV1dYa6OzOBgV3HoG7/PKDrT0dvidnU3ERFVQUl/U1P2rZd/379mV46jU8+3aKjuNDywGTg9zoKdKFHUKsntEzVnzlpBkUFRTqKsl35qfJISfhTA1QCp7r+rAQquv2zqXzbQi8JAJynAbXP+b6r/P9kPgsKugcHg7qOQmxO8LT34F5XBAAAN0+9mfJTJzl3/pyO4mKBZ4Ai1G52kd9VoocH+A7wAzQtnSwqKGLm5Jk6inKEvQf32l0FAD9qXX5F19G9kQ8dbTbVTRggAUDkaQOOdB1XEg8Uc/VehAGY2EilJ8rKj9LW3kZyUrKVlwmLmJgY7py3lKdfesZsmuA/FQn8CLgReBTJcpYOPIuGpX4hCQkJLJ23JOLT/Ya0tLVyrOJ4OC7ViWrUr/b2XoXL5ixFOwkA3McLnOw6riYblbd+MNAP1WsQ+vehqGEIw/x+PwfKDjB5/GQzxThGn+w+LJ23hNfee13n/IZ7gBuAu7h6MOd2Q1GzvsfqKtDj8bD09qVkZ2brKtJ2+w/vx+/36yiqA5WdtLzrqEYNQYb+vRL1li+ihGQqE1fSF5iLGrM2JLdPLn9x/1f11cgBtuzcyoZPNugu9hJqQtSzugt2MA/wFeAnmAw2Lzd31lymTHBH4Bny5ItPUltnKn3IfaidKmv11Ei4hTv6yIRutcBLmHgzvXDxAhWnK7RVyAmml05j4lht+QFCslDzAlYDkb1LTc8UAm+gJvtpbfzHjx7vusa//FS52cb/KGoZqjT+4s9IACCu5TkzJ2/fs0NXPRxj3s3zGKgnVfDl5qMmfj6GOz+XMaitfA9jQWKkkv4lLJy9QHexttPwGXoamWwqrsKNXzRCn+cAn9GTT1Se4GK9uzIfx8bGcveiu63KLJeFejPeCcyz4gI2WQDsRqV41frWD5DXN4+7Fy1zzaS/kNq6Wsory80U4UOWnIprcNcnRuhWDbxn9ORgMMiOvZ9qrI4zJCclc//dD5DXJ9eqS0wA1nQd2sccwqgUNfb8HjDOigvk5+bzwLL7SUwwnTfIcTS8/b+LbKcrrkECAHE9T5s5ef/h/bS2teqqi2OkJqdw/7IHyOubZ+Vl5gG7UIHAQiJj0m4MsBh4H9gBzLHqQgV5Bdx/132uWG56uZbWFg6Y3/nvKR11Ee4lAYC4nncw8Rbh9XnZumubxuo4R0pyMg8su5+C3AIrL+NBBQLvosbP/xoLutE1yETtfHgYler1diwMWArzC13b+ANs3bUVn9/w6Buo5X7vaqqOcCkJAMT1eIFfmSlg1/5dtLa5M0FYclIy9y+7j8L8wnBcbgTwH6h0q28BD2JvMJAFPAS83VWnXwPDrb5oUUER9991H0mJSVZfyhYtrS3s2r/bbDG/wsT8HREdIqFLUdgvB5UdLNVoAdNLpzF7xmx9NXIYr8/LqrXvcPhY2HdD7ADWAR8Bm4FPURndrJAITAJuQu1mOQeLs0pebszwMSyes4i4OPfmMFv38Xq2mes1a0Fl/KzTUyPhVhIAiJ76NaqL15CE+AQef/hxUpLd2WUbsnnHx2zcutHOKrShxt53AMeBE11/nqLnWd5iUQ3I0G7H5K7Dltduj8fDrdNvYXrpdDsuHzatba38+rn/wOs1lXH318DfaKqScDEJAERPDUMlBjI8bHTz1FncNOUmfTVyqLITZbz1wdtmv8R160Ttt94KNHUdodmZKaic/Old/5xHmN/sryUhIYE75y1lWMkwu6tiuY3bNrF5+2YzRQRQQ0Vh2TxARDb39qMJ3Y6hxnrvNFrAoWOHoiIAGDFkBA9nZrPy3deob6i3uzohCahNoiJKTlYOyxcvtyrvguMcOnrIbBFvIY2/6CGZBCh641UzJ9fWXcTni455SXl983jsvq8wcexEu6sSsSaNK+Wx+74SNY1/R2cHdZdMD9uv1FEXER2kB0D0VB/gh2YL6ejscPUEru4S4hNYOHsBIwYPZ9W6d2huifadf3smIy2DxXMXU9J/kN1VCavOTi1zN3+ISrzkrhScwhLSAyB6Igb4AzDQTCEej4fERPdlbLuewQMH8xf3f5XRw0fbXRXHGztyLF+9/7Goa/wBkpKS8HhMT8saiPqsyne7uK5YuysgIsIPgEfNFlKQV0DpDaUaqhN54uPiGTl0JIX5hdTU1rg2L4JRuX1yWTpvCdNunBY1PUSXi42JpexEGS2tLWaLGoLq3V1vvlbCzSQAENezFLWsyPSryfTSaRQVFJmvUQTLycph4tiJpKamUV1TjdfnqJUCYZeaksrcm+ay6LaF5GTl2F0d23l9Pk6eOqmjqFmoDZjKdBQm3EkCAHEtw1DpRE0v3s/JymHxbYtct2ObER6Ph375hUwcO5FgMMi58+cIBAN2Vyus4uLimF46jWULllFcWKSj69sV8nPzOHzsMO0d7WaL8qD2j1iJJAQSVyGfOnE1qcAW4AazBcXGxvLQ8gfDlS434jQ2N7Jj76fsObCHjs4Ou6tjqaTEJCaOncjk8ZNIS02zuzqOdLbmLM+vfAG/v6d5m65pPzAdlR1QiM+RHgBxNf+Fpj3pF85eyLCSoTqKcqXEhEQGDyhh0vhSMtOzqLtUR1u7u+YIZGVkMb10OnfOX8rQQUNJSHBMniHHSU9LJzU5heMVWpbz5wMlyPJAcQUSAIgr+Tvg2zoKGj96PDdPnaWjKNeLjY2lMK+A0nGl5PbJpa29jcamRrurZZjH46Gk/yBuu+k2Ftw6n/79+hMXG50T/HqrMK+QhqZGamprdBR3A2oYYLuOwoR7yBCAuNx04EM0pILNz83n4XseitpZ3Tq0tbdxvOI4B44coKKqkmAwaHeVrsnj8VBUUMSoYSMZNXSUdPOb4PP7eP7VF6g+b3g37u68qM2bNukoTLiDBACiuwJgF2B6sD45KZmvfOlRMtOduHV9ZGpqbuLw8cMcP3mcM+fOOmYFQXx8PMUFRQwtGSqNvmYNjQ08/fIzuoaEzgKlwDkdhYnIJwGACIlDbSt7s9mCPB4PX1zyBQYPHGy+VuKKAoEA52vPc7r6NFVnq6ioqgzbvIGEhASK8vtRXFhMcb/+DOjXn9hYGU20ysnTFbz05ku6en+2ALdi3ZbRIoJIACBCfgZ8Q0dBt0y7hZmTZ+goSvRQMBikvqGeukt1XX/WU3+pnvqGehqaGggEerfMMCYmhsz0TLKzssnJzCY7K6frz2yyM7Nl2V6Yad5m+mfAE7oKE5FLPsUC4EvACh0FDSsZxr133KOjKKFJMBikrb2d9o422trb6Ozapji0XXF8fDwACfHxJCcl/+kQzhEMBnll1au6VgaA+sy/rKswEZkkABAjUbOD080WlJ2ZzaNffISkxCTztRJCfE57RzvPvPysri2mW4BpwAEdhYnIJGnZols68BoaGv+4uDjuXrhMGn8hLJKUmMTyxcv/1GNjUirqsy+zdKOYzNyJXh7gRTRM+gNYPGeRTPoTwmKpKalkZWRRdkJLiv8+wGhkKCBqSQAQvb4D/I2OgiaPn8z00uk6ihJCXEdeV5KoszVa8gOMANqBzToKE5FFAoDoNAd4Gg1DQEUFRdw5f6ls8iNEGJUMKKHyzCldmSJvA7YBJ3QUJiKHfGtHn/6oGf+mg7/UlFTuXrhM1oALEWYxMTHcvXCZrqRLMcAfUHsGiCgiAUB0Fu7zkwAAIABJREFUSURtCpJrtqCYmBiWLVhGeprp+YNCCANCAbim3rcc1HeDrP+MIvLqFl1+CyzRUdDcWXMYPWyUjqKEEAZlpGcQH5/AyVMndRRXiHo5WKWjMOF8EgBEjweBH+goaPTw0cyZeZuOooQQJhUXFlFbf5HaulodxZUCVcBuHYUJZ5MAIDpMAN4ATC8g7pPdhy/cca+M+wvhIEMGDuZY+TFa21p1FDcPWIPaPEi4mMwBcL8cVMIP02N7CQkJLF+0nIQE0zsFCyE0SohPYPni5SQmJOooLgk1H6CvjsKEc0kA4G4xqGQ/Wmb33jH3Dvrm9NFRlBBCs5ysHJbO0zLFB2AA8BLSS+xq8st1tx8Cj+ooaMakGUwaV6qjKCGERfpk98Hn91FVXaWjuMGol4gNOgoTziMBgHstAX6Nhg2fSvoP4o65i2ULWCEiwKDiQVSdPc2lxgYdxc0CdgFHdRQmnEWGANypCHgGDY1/RloGd86/Uxp/ISKEx+Nh2cJlZGZo2efHAzyHSiAmXEYCAHd6ErXRhymxsbEsX3Q3KckpGqokhAiX5KRkls2/S9dqnWzgVzoKEs4iQwDuMw/4Fx0FLZy9gGElw3QUJYQIs/S0dFKTUzhecVxHcSOATYCWjEPCGSQAcJ9fAKZb7bEjx3LLtFs0VEcIYZfCvEIamxupuVCjo7hs1MoA4RIyBOAuA4D5ZgvJz81n0eyFGqojhLDb/FvnU5BXoKOoxcBAHQUJZ5AAwF2+gsleneSkZO5ZtJy4uDhNVRJC2CkuNo67Fy4jOcl0LrBY4CENVRIOIQGAu9xs5mSPx8PSeUt0zR4WQjhEVkYWdy24S8dqnlk66iOcQQIA9/AAE80UcPPUmxkycIim6gghnKSk/yBmTbnJbDGT0LC8WDiDBADuMRTIMnrysJJhzJw8Q2N1hBBOM3PyTIYOGmqmiGxgkJ7aCLtJAOAehhv/hIQEFs9ZpLMuQggH8ng8LJ67mIR4Uxt6Gf6uEc4iAYB7GP5E98srlGQ/QkSJ1OQUs6sCknTVRdhLAgD3MBwAXGpsIBgM6qyLEMKhgsEgDeb2CZD9wF1CAgD3OGv0xEuNl/jk0y066yKEcKhPPv2EhiZTAYDh7xrhLDKb0z3igZauPw2ZPeNWppdO11cjIYSjbN+znbWb1pkpohNIBXx6aiTsJD0A7uEFKswUsOGTD9m+Z7uWygghnGXbbtONP8AJpPF3DdkLwF1GAFPMFFB+6iRxcXH07ye7fwrhFtv3bGfdZtONP8CLwBodBQn7SQDgLk3Ao2YLqThdIUGAEC6hodu/uyeAKl2FCXvJHAB3iQEqgWIdhc2dNYcpE0x1KESc87Xn2XNoL6fPnqaxqZGE+ARy++QyYshwxowYQ1ys7JHgZD6fjwNlBykrL+PCxQt4vV4y0jMY0G8AE8aMJ7dPrt1VDKttu7W9+QOcQiUBkiVDLiEBgPs8DvxaV2HREgT4fD7WblrLrgO7r/p30lLTmHbjNG4cO1E2S3IYr8/L7gO72bJzKy2tLVf9e6XjSpkz87ao+P1pbvwBvgb8p84Chb0kAHCfWGAvMEZXgW5fHdDY1MjK916juqa6R38/JTmFqROnMml8KfFxhhddCA28Xi97Du1hy86tNLc09+ic/Nx8li+8m6xM9ya009ztD3AYGIdMAHQVmQPgPkHUaoAHdBVYcbqCxMREigqKdBXpGCcqTrDizZe41HCpx+d4fV4qTlew99Be/H4ffXNyiY+XQCCcWtpa2bZ7G2++/xZlJ8ro9Hb2/NzWFg6UHSS/bx7ZWdkW1tIeFrz5B4EHgWM6CxX2kwDAnY4BfYCpugosP3XSVUFAMBhk846PeW/Danw+Yy81Xq+XyqpKPt33KY3NjWRn5khKZYtdqKvloy0f8s7ad6g4XYHX5zVUjs/n4+DRQ3iAAUUD9FbSRhY0/gA/R+OwonAOGQJwr3jgdWCxzkLdMCegvaOdN99/ixMVJ7SXPXjAYCaMncCwQUOJjZX4Wge/38+xk8fYfWAPJ0+f1F7+0EFDWTpvCUmJkZ3i3qLGfxWwDOn6dyUJANwtBXgbuE1noZEcBNRcqGHle6/1qsvfiNTkFMaOvIHxo8fTN6ePpddyq9q6WvYe2sv+IwdobWu19FrZmdksX3Q3eX3zLL2OVSxq/NcDSwBrf/jCNhIAuJ8EAV32H9lvqsvfqKKCIkYNG8mooaNIT0sP67UjTWNzI4ePHeHwscOcrQlvyvn4uHgWzl7A2JFjw3pds6TxF0ZJABAdojoI8Pv9rN20lp37d9laD4/HQ3FhEaOGjmLU8NGkynwBQE3KO3TsMIePHaaq2v4cM6XjSpl705yIGMKRxl+YIQFA9IjKIKCpuYnX3nudM+fO2F2Vz4mNjWXcqHHMnnFrxI89G9XW3saGTzaw7/B+AoGA3dX5nOLCYpYtuMvRPTbS+AuznB/iCl28wKvAdKBEV6FOXh1QeeYUK95YwcVLdXZX5c8Eg0HOnT/HkeNlDB88LOqCgEuNl3j+1ReoqKokGHReYrnG5kYOHj1Iv/xCMjMy7a7On5HGX+ggAUB0sTAISHJUELB11zZWrV3Vq/XhdmjvaOfkqZOMGz2O2Jjo+Dh6vV5eeO1F6hvq7a7KNXm9Xg6UHSQ+PoHiQuc829L4C12i4xtHdGdREFDuiCCgs7OTN99/ix17dzjyzfJKWttaiYuNddV69Gv5eMfHlJ0os7saPRIMBjl56iS19RcZMnCw7fMCpPEXOkkAEJ1cGQRcrL/IijdXcOrMaVuub0Zt/UWmTpyCx+PuaTmBQIA31rxpOIGPXWrrajlafoxB/QfZluxJGn+hmwQA0csLvILKFjhYV6Hlp8pt2Ur42MljvPzWH2lqbgrrdXXxer2MHDKC1JRUu6tiqXMXzrFjzw67q2FIa1sr+4/sJzsrh9ycvmG99vY9ljT+G1GN/9V3TxKuJgFAdPMBK4EZaOwJUHsHhKcnIBAIsOGTD3n/o/fx+/2WX89KA4oGuH672sqqUxHT/X8lfr+fI8eP4PX5GNR/UFh6bCx689+AyhIqjX8Ui7G7AsJ2qYD2VmftprVst/hNr6WtlRVvvsTWXVutukQQtf3pp1ZdoLuGpoZwXMZWDY1hu8dPUb87SyaCbN21lRVvrLA8Q6FFjT+oz7y7u5vEdUkAEN1ygXWAJanP1m5ay5adW6womnPnz/Hsy89SWVVpSflAI3APag/0ycAk4HnAsm6GhqZGq4p2DIuDnAAqd/3tqN/Z11Bd3JYsN6ioquSpl562LMeERd3+IWNRQwAFVl1AOJ8MAUSvUON/g5UXqThdoX1OwO4De3jtvddoa2/TVuZljqAakU3d/ls1anOlF1AJtMYCCTovmpKSwtgRY3QW6Tif7ttpxT4M7cAK4H7gF0B5t/93DDXMdSuQr/vCnZ2dHCg7QGJCgtYhr+17trN2k2WNf0hf4A7Uz6fZ6osJ55EAIDrlomb/Wtr4h+iaE+Dz+Xhn3bt8/OnHVi7x+wPqrfFqiejrgdXAb7r+Tj80vUXFxsRSOq5UR1GO9cmnn+gM3PYAPwIeRgUAtVf5e3Wo3ptBWPDMB4NByivLaWhqZPCAwcTEmOtYtbDb/0r6AgtQq4JkJUCUkQAg+oTlzf9yZlcHNDY18tLbL3OiUv8Wvl18wHeAJ1ArJK6nHdgG/Bb15dkEjEKlXDbE6/Myc9IMo6dHhPUfrzeb9rcB+D3wDeC7wHbU7+J6vMBrqJ6c+Vjw3VdTW8PxyhMM7l9CUpKxzI4Wd/tfTR4q6JWegCgjAUB0ySOMb/6XM9oTcKLiBCvefMnKLXzPomZErzB4/gVgLfBLoAy4CwP7bAQCAUrHTSI+Pt5gNZytpbXFzJyQIPAQ8BhqKOaUwXJ2ombALwC0J/pvaW3hQNlB8vvmkZ2V3atzw/zmf7lQT8BKZGVA1JAAIHrY8uZ/ud72BGzZuZV31r9r5Ra+m1Hj/Yc0lOUD9gF/DaQZKWD08FGkpRo61fFq62rZc3Cv0dNrUF39Oh6E06ghgRvRmAMjxOfzcaDsID6/j0HFPVsqaNOb/+WkJyDKyCqA6OCIxj9kwycfXvdNsKOzg1ffWcmGTzZYOd7/JGp3xGrN5RpemhDGZXJhZ3KVg+7lHhdQb7z/B4uWCm7ZuZU/rnqF9o5rj1CEacJfT41E9ZDI6oAoIAGA+zmq8Q+5VhBwvvY8T7/0DEfLj1p1+WbgS8Bf0bPx/t4yHgC4OBdAQ6OpIRwr1nv6gG8Dd6OWfWp3ouIE/7XiKarPXznGdFjjHyJBQJSQAMDdbB3zv54Nn3zI1l3bPvff9h/Zz7OvPGflTnFHgWnAy1ZdAKgwemJDo3tzATQ6qweguzdQ2TAtiTgbmxp5YeWLHDhy4HP/feuurU5s/ENGAh+gvkOES8XZXQFhmTz0J/nxAgeAiboKXP/xeo6WH6Vffj+qz1dz+qylG/m8gRpHtrqVNdEDYNlER9s5bAjgcgdRyYOeQ03i1Mrr8/LWB2+z5+AeCvIKOFtTTVV1le7L7EZ93nXNIh2L+g6ZA5zXVKZwEOkBcKdc1Kx03Y3/F4GZXWVrU1VdxfY9261s/P3A94HlWN/4g6kAwL09ACaHACo0VeNaGlHDAd9Az2TDP3Pq7Gm279lhReO/EZiFGtrSOaw1FvgIGQ5wJQkA3MeKMf9Q4/860AYsRXMQYKGLwCLgn1GpYsPBcABgspvc0RzeAxASBH4OzEWtPIgEG1HPeAsq14HuIEDmBLiUBADuYnXjHxIpQcAuVLfu+2G+ruHGqq29jY7ODp11cYT2jnaz92V03b9RH6H2f7BspylNujf+IVYGAYUayxQ2kwDAPcLV+Ic4PQh4HrgJOGnDtRsBw/3dbuwFMLm8sZ7wDN1crgq1h8AvbLh2T1yp8Q+xKghYjwQBriEBgDuEu/EPcWIQ0AH8JSprnGW7BfWALAXsJkK6/6+kA/h71PPkpFz512r8QyQIENckAUDks6vxD3FSEHAauBn4nd0VwdRSQDcGAKbuqUJTNcyws0fpchtRqat7krJXggBxVRIARDa7G/8QJwQBG1BjttttrEN3shKgm0ZzAYCdPQDd7UbNKVljYx1CjX9vUvVKECCuSAKAyGVF4+9HdXX2pvEPsSsICKLSud6Os9YqyxBANyZ7NZwSAIBaVbIQlUEwXKtKQow0/iESBIg/IwFAZLKq8f8y8JKJMsIdBDQC96C+jP1humZPSQDQTQTPAbiSUNC5FDVBMRzMNP4hEgSIz5EAIPJYkd7XC3wBc41/SBtwJ7BaQ1nXsh/V5f+axdcxSjYE6sZkUOO0ACDkHWAK6lm00mpUr4OOHfqsCgLeR9IGRxwJACKLVel9v4TehrQV9Xb0lMYyu3sRmA4cs6h8HQw3Wi2tLVZufxx2Xp+X1jZTE+idGgAAHEc9iy9aVP6TqM+SzhUIVgQBobTBEgREEAkAIkekNP7dy/4q8ABwVlOZdcCDqKGKnsyAttMFTNTRTcMAJjc4agFqNVXFKi2oZ/Ih1DOqwxngPqzbsVKCACEBQISItMa/uz8Aw1GpeI02iPXAvwPDgBf0VCssJCUwrlkB0BPPo571n2B8bkAz8D+7ytExJHctEgREOQkAnC+SG/+QFtRmPP1Qb/BvoxKsXEszamnfo0AR8C30vV2Fi0wExLXj/1dzEfgH1DP7FdQzfL2x+w7gLVQvQj/gB4Qv6ZAEAVFMtgN2Njc0/t01ot7gXwASgCGoCUQlqC9BL2oS4W7gMM6b2d9bEgAQdQFASBvwTNcRi3rOJwCpqBevFKAcOAKcwJpu/p4KBQEvIVsJRxUJAJzLii19Q+v8nTBzvhPVyB+2uyIWMryBjZuSAbkoB4BRfuBg1+FUVgUBHwG3AdWayhQayRCAMzl1nb/oHVkKiOtyALiZ5AmIMhIAOE8SsApp/N2gwuiJMgTwJxWaqiF6xqog4B3UsIdwEAkAnOeHqOQiuuhM8iN6x/Dba1NzE4FAuDPN6uf3+2luMZW/xvAwijDMiiBgImolkHAQCQCcpS/wdY3l2TnhT6hxz04jJwaDQZqamzRXJ/yampsIBoNGT+9Exo7tYkUQ8LdAH43lCZMkAHCWxaghAB2k8bdfALVFsSFuGAYweQ+nCf+GO+IzuoOAJNR3nHAICQCcRdeMfyfN9o92JlYCRH0AIBMA7ac7CBijqRyhgQQAzpKjoQwZ83eWCqMnumElgCwBdAWdQUBfDWUITSQAcBaPyfPlzd95TCQDivxcACbvoUJTNYR5uoIAs99xQiMJANxDlvo5k4n9AFzQAyBDAG5ixcRAYSMJANzjn5DG34kMN2KX3DAEYC4AkCWAzvMaarMi4QISALhHjd0VEFdkvAegudHMEjrbaVjKWKGpKkIvye3vEhIACGGt0xjc1Mjv93Ph4gXN1Qmf87Xn8fsN7+fkB6o0VkcIcRkJAISwlhcTyWzWbV6P1xt5Q66d3k7WbV5npoizyFizEJaS3QCFsN5RoNjIiSdPn+Q3z/+WAf36k5iYqLla1mjv6ODUmVO0tLaYKaZMV32EEFcmAYAQ1tuH2hLVkOaWZg4dc/OuyVe0z+4KCOF2MgQghPU+srsCEWiD3RUQwu0kABDCeh8Al+yuRASpA0xNIBBCXJ8EAEJYrwV4xu5KRJCngDa7KyGE20kAIER4/BrZ2a4nAsBv7a6EENFAAgAhwuME8LTdlYgAvwPK7a6EENFAAgAhwuebqMRA4srOAN+2uxJCRAsJAIQIn0bga8hQwJX4gceQyZJChI0EAEKE17vAV4HITfKvXxB4HFhjd0WEiCYSAAgRfs8A37K7Eg7yTeBJuyshRLSRAEAIe/wEuBuot7siNmoE7gN+ZndFhIhGEgAIYZ/XgUnAFrsrYoOPgfHAS3ZXRIhoJQGAEPYqB2YAtwPbba5LOOwFvgDMAirsrYoQ0U02AxLCGdZ2HTcDi4AFqDfkSBdEbeyzGngH2GRvdYQQIRIACOEsG7uObwN9gOFAPyAVSDJQ3hLgDoN1WQW8beC8dlT647OorZAvGry+EMJCEgAI4VwXMT8/oB/GA4CdyOx8IVxL5gAIIYQQUUgCACGEECIKSQAghBBCRCEJAIQQQogoJAGAEEIIEYUkABBCCCGikAQAQgghRBSSAEAIIYSIQhIACCGEEFFIAgAhhBAiCkkAIIQQQkQhCQCEEEKIKCQBgBBCCBGFJAAQQgghopAEAEIIIUQUkgBACCGEiEISAAghhBBRSAIAIYQQIgpJACCEEEJEIQkAhBBCiCgkAYAQQggRhSQAEEIIIaKQBADOEmfi3FhttRBuYuaZMnOucC8z3zXyTAnRTQwwF3gbCABBg0cH8EdgZnirLxzqJtTz4MX4M+UHPgCWAJ7wVl84UCnwn0Arxp+pILAZuBcJBkQU8wAPA5WY+zBd6dgCTA/frQgHuQM4iP5n6iCwOIz3IZxjJrAN/c9UBfAQElyKKDMU9Wal+wPV/QgAvwf6hOmehL0KUb9vK5+pIKqnqn+Y7knYKwv4OaonyMpn6iNgVJjuSQhb/TXQjvVf1KGjGpgRljsTdrkLaCB8z1RD1zWFe90EnCN8z1Q78FdhuTMhbOAB/pnwfaAu/3A9YPkdCjv8Pda/oV3pCKCeZ+E+92J+nN/o8XNkcrpwmQTgdez5QHX/wv6W1TcqwsYD/Ap7n6kg8EtkDNdNvo25ycg6jpVAvNU3KkS4/Bb7v6hDQcBDFt+rCI//hf3PU+j4nsX3KsLjEex/lkLHU9beqhDh8R3s/zB1PzqB2yy9Y2G1L2D/W1r3IwB82dI7Fla7mfDOTerJ8d8tvWMhLLYIZ31Rh46LQJGF9y2sMwHnfVEHu+o0wcL7FtYpBuqw/xm6/PADCyy8byEskwKUY/+H6GrHK9bdurBIDCrHg93PztWO7UhGykj0GvY/O1c7KoFU625dCGv8O/Z/eK53LLHs7oUV/hb7n5nrHY9bdvfCCgux/5m53vGvlt29EBYYibkUrOE6ypF0nJGiD+Fd62/0uATkWPQzEHrFo7Lx2f3MXO/oBIZb8yOIbrLe0hp/R2Q0rCXAMrsrIXrkL4AMuyvRA5nAY3ZXQvTIPcBAuyvRA/Go3i+hmazf1S8TqALSdBSWEB/D2KFZ9MtNpsMb4PS5Fo6cbNRRdMhG4BadBQrtYoHjwCAthcV4GD0kk/4FKQCcqm7lUHkDgUBQR/EAJ4FhqElcwrk2o2nzMI8HRpZkUpyfQmJ8DGcvtLH/2CW8voCO4gGaUBOXm3QVKCLjLTXSPIyGxn9wcRrf+8sbWDanP5lpn8+Jcaq6hWffKucnzx2mscVr9lI3A+OAfWYLEpa5Aw2Nf0HfZP7HY2O4b+EgcrMTP/f/zte1s+K9Cn781EFqLrabvVQJagXM22YLEpaZgIbGPzMtnn94eDQPLx38p4Ay5FJTJ6+vO80PnjzAyTPNZi+Vjvpu/ZXZgsRnpAdAv48xmXv/618azk//oZSE+GuP0NRcbOeeb25k8+4LZi4H8CPgu2YLEZZ5EbjfTAHL5w7gmX+ZRnrqtROsNbV4efiftvD6+tNmLgfwAvCg2UKEZX6Myvpn2Kwb83j1J7PIy0m65t/r9Ab4xv/9lN/88ZiZywFsQr2wCE0kANArBziPiaVQ3/vLG/iXr4/r8d/v9AZY9PUNrNt2zuglAXah9voWzhMDXMDExLqHlw7mmX+ZjqeHn/ZAIMgj39vC86tOGr0kqDrnoyZxCefZA4w3evLt0wtZ9ctbr/uS0t13f7mXH/3XAaOXBPABuaiJpkIDCQD0mg+sNnryoln9WPXL2T3+og6pa+jkhuWrOHuhzeilfai5C61GCxCWGQkcNnryxJHZbHl+PokJvYtJ2zv8TP3yavYdNfVdOwI4aqYAYYk0VCNq6EWlOD+Ffa8uJjsjoVfnBQJBFn19A2s+qTZy2ZDbgbVmChCfkVUAek00emJcrIeffLO0140/QE5mAt9/vOe9Ble6PGoegHAew88UwL89cWOvG3+ApMRY/v2JG81cGkzWXVhmHCZ6Kb//+LheN/4AMTEefvqtUmJjTL13mn4oxWckANBrsNET50wtYGSJ8VVeD95RQsZ1xnevw3DdhaWGGD1x2IB05kwtMHzh26cXMnygqZWH8kw5k+FnKjMtni8vLjF84dGDM5k9Jd/w+agJpkITCQD0KjZ64qJZ5lLzJybEmvqyx0TdhaUMPxhLbjH/K100q5+Z0+WZcibDz9TcaYW9Gve/ksXmvuv6m7q4+BwJAPQynLN6aP900xcfOsBUGVryFgjtjD9T5p4HAIYUm3os5JlyJhPPlPlf6RBz33XyTGkkAYBehvvg01LMp2QwOQTQ+0E9EQ62PlOZ6aYeC3mmnMn4M5Vs6jsG4M/ymvSSPFMaSQCgV4vRE8/XmU6+wrmLhlcBAJjO1CEsYeszVW18ZQlI1janMrzaR8szVSvPlFNIAKCX4Ry9u4/Um764yTK05hcW2hj+wtt9pM70xfeUmXqm5MvamUx8T2l4psx9T8kzpZEEAHpVGj3x9fWnCZpImXL2Qhtb99UaL0DtCiacp8Loie9uOkt7h/F0/O0dft7ddMbw+cgz5VQVRk/csrfW1Bt8MIjZLJMVZk4WnycBgF5lRk88XN7AyrWnDF/4f//ugNnNXI6YOVlYxvAzVd/Yya9fNp6H5+cvltHQbGqvCXmmnMnwM+UPBPnXpw4avvDLayopqzDV2SjPlEYSAOi1y8zJ3/zJLkNjbJt2ned3K4+buXQDUG6mAGGZ3ZhIp/vDJw9wtLL3X7hHTjaaTdsaRKWbFc5zDBNd6b995Rgf7+n9/iM1F9v51k9NfUWC+jwITSQA0GsXJvJUn6pu4a5vfERdQ2ePz9l39BLLn9hodtvNjah0wMJ5aoBDRk++1NTJkr/9iFPVPZ9LWFndwtK/+9DsTpP7UfsBCOfxoTbWMaTTG2D5ExvZf6znX3UXL3Vw1zc+oqrGVLbxOiQA0EoCAL38mMxTvWVvLVO/vJpNu85f8+8FAkGeev0EMx9ew4X6DjOXBBP7F4iwMPX7OVrZyJQHVvPWh1XX/btvrD/NlPtXc+yU6blW8kw5m6nfT83FdmY8tIZn3jhx3aHHjTvPM/XLq83OUQL4ADD1piM+TzYD0u9O4A0dBc2fUcgX5w9k5sRcivNT6OgMcKq6hfe3VPP7t09y4LiWTbE6UZnBTH86hWUmoOnNZ/r4vnx5cQm3TMpnQNf+7afOtfLhjhpeeOekji/pkHGoXgDhTHlAFSZyAoTcMCyLB+8oYd70QgYUppKYEENVTSubd1/g5dWVvL/F1OY/3S0BVukqTAgrxAPVqDHQSDhWWvNjEJrtwv5npafHpxb9DIRer2P/s9LT4ywaghUhwuEfsf8D09NjskU/A6HXl7D/Wenpsdyin4HQayr2Pys9PZ6w6GcghHbpqAlQdn9orne8Y9UPQGgXCxzG/mfmesc+ZG5RJHkf+5+Z6x3nMLF/gRB2eAz7PzjXOjqAkZbdvbDCXOx/bq53zLbs7oUVRqPmAdn93FzreNCyuxfCIh7gI+z/8Fzt+L51ty4s9AL2PztXO5617raFhX6I/c/O1Y71yGR1EaGKceZQwBZkQk2kSkNlQ7P7Gbr8OAZkWHjfwjpxwGbsf4YuP86jVigJEbHm46wutipUYCIi1wTUhi52P0uhowG17E9ErgHAGex/lkJHJ2rIS4iIdz8qSZDdH6pLwHiL71WEx2ygHfufqQ7gdovvVYTHWFS2PbufqQDwsMX3KkRYPQp4se9DVQNMsvwuRTgtBJqx75lqAhZYfpcinCajut7teqa8wCNW36QQdliC6i4N94fqCDA0DPcnwm8a9iSeOgNMCcP9ifAbDhwl/M/UJWBRGO5PCNsMBXYSvg/V86iJY8K98lF50sP1TK1BpZIV7pUO/IHwPVPpH9pPAAABDklEQVQ7gMFhuTMhbBYH/D3WTuQ6DTwUrhsStvOgft9Wdt9eRD23kugneiwBTmLdM9UC/DOQEKb7EcIxioD/h/oQ6PpAnQG+ASSH8T6Ec+SgcjzUo++ZqkN9SWeF7zaEg6SgUvGeRW/D/zOgMIz3IYQj5aIabaNDA15UWt8vAYlhrrtwpgzgq8BGjK1A8aMSWT2G6g4WIgm1ouk9jE9o3oHqReob5rqLK5AMS87TD7gNtVHHCKAE6IP6EvahZn2fR03SOYJK4LERNSNbiCvpC9wKTAdGocZac/lsbkgzKmHVCdR+A1uAD1Fd/kJcSTpwC3ATKqX4cD57puJQ30cXUcMHR4BtqKx+2vYGFub9f0XyYermeQ7LAAAAAElFTkSuQmCC;" parent="1" vertex="1">
          <mxGeometry x="354" y="700" width="154" height="154" as="geometry" />
        </mxCell>
        <mxCell id="-75UwoDDomG-bNRoVkYs-28" value="O Model faz uma requisição na API de CLIMA HTTP, com os parâmetros informados" style="text;html=1;align=center;verticalAlign=middle;whiteSpace=wrap;rounded=0;" parent="1" vertex="1">
          <mxGeometry x="550" y="630" width="210" height="80" as="geometry" />
        </mxCell>
        <mxCell id="-75UwoDDomG-bNRoVkYs-30" value="A API retorna os dados do clima em um formato JSON" style="text;html=1;align=center;verticalAlign=middle;whiteSpace=wrap;rounded=0;" parent="1" vertex="1">
          <mxGeometry x="60" y="610" width="210" height="80" as="geometry" />
        </mxCell>
        <mxCell id="-75UwoDDomG-bNRoVkYs-32" value="O model processa os dados recebidos da API, como temperatura, clima e envia os dados prontos diretamente para o ViewModel" style="text;html=1;align=center;verticalAlign=middle;whiteSpace=wrap;rounded=0;" parent="1" vertex="1">
          <mxGeometry x="30" y="440" width="240" height="80" as="geometry" />
        </mxCell>
        <mxCell id="-75UwoDDomG-bNRoVkYs-34" value="A ViewModel recebe os dados processados, renderizando-os, atualizando assim a View automaticamente" style="text;html=1;align=center;verticalAlign=middle;whiteSpace=wrap;rounded=0;" parent="1" vertex="1">
          <mxGeometry x="20" y="250" width="240" height="80" as="geometry" />
        </mxCell>
        <mxCell id="-75UwoDDomG-bNRoVkYs-36" value="O usuário ver suas informações atualizadas" style="text;html=1;align=center;verticalAlign=middle;whiteSpace=wrap;rounded=0;" parent="1" vertex="1">
          <mxGeometry x="60" y="80" width="240" height="80" as="geometry" />
        </mxCell>
        <mxCell id="Uh8u_s1Oc78r0PNswdwn-2" value="&lt;h1 style=&quot;margin-top: 0px;&quot;&gt;AOP2 - ARQ SISTEMAS&lt;/h1&gt;&lt;p&gt;Autor: João Carlos Motta Barbosa&lt;br&gt;&lt;/p&gt;" style="text;html=1;whiteSpace=wrap;overflow=hidden;rounded=0;" parent="1" vertex="1">
          <mxGeometry x="10" width="300" height="90" as="geometry" />
        </mxCell>
      </root>
    </mxGraphModel>
  </diagram>
</mxfile>
